<?xml version="1.0" encoding="utf-8"?>
<!-- Generator: Adobe Illustrator 24.0.2, SVG Export Plug-In . SVG Version: 6.00 Build 0)  -->
<svg version="1.1" xmlns="http://www.w3.org/2000/svg" xmlns:xlink="http://www.w3.org/1999/xlink" x="0px" y="0px"
	 viewBox="0 0 1366 768" style="enable-background:new 0 0 1366 768;" xml:space="preserve">
<style type="text/css">
	.st0{display:none;}
	.st1{display:inline;}
	.st2{fill:#F15A29;}
	.st3{fill:#FFFFFF;}
	.st4{display:inline;fill:#F15A29;}
	.st5{font-family:'MyriadPro-BoldCond';}
	.st6{font-size:209.6878px;}
	.st7{letter-spacing:-8;}
	.st8{font-size:250.5831px;}
	.st9{letter-spacing:-10;}
</style>
<g id="Layer_1" class="st0">
	<g class="st1">
		<path class="st2" d="M156.74,203.87h3.66c-1.21,0-2.43-0.03-3.66-0.08C156.74,203.82,156.74,203.85,156.74,203.87z"/>
		<path class="st2" d="M94.82,180.75v23.12h49.64c0.02-0.43,0.05-0.86,0.07-1.3C125.94,199.64,106.79,191.86,94.82,180.75z"/>
		<path class="st2" d="M114.47,30.79H94.82v23.12c5.46-5.07,12.42-9.44,20.13-12.98C114.77,37.08,114.61,33.63,114.47,30.79z"/>
		<path class="st2" d="M160.39,30.79h-32.69c-0.09,1.66-0.19,3.45-0.29,5.35C138.31,32.68,149.85,30.79,160.39,30.79z"/>
		<path class="st2" d="M160.39,30.79c-10.55,0-22.09,1.89-32.98,5.35c-1.17,21.77-3.07,57.82-3.29,67.14
			c-0.26,11.02,2.07,13.89,6.61,20.85c1.48,1.77,2.8,3.93,3.9,6.4c0.58,1.13,1.05,2.36,1.41,3.67c1.42,4.37,2.24,9.42,2.24,14.8
			c0,16.67-7.8,30.19-17.42,30.19c-9.62,0-17.41-13.52-17.41-30.19c0-4.47,0.56-8.71,1.57-12.52c0-0.01,0-0.02,0.01-0.03
			c0.01-0.03,0.02-0.05,0.02-0.07c1.01-3.78,2.45-7.14,4.22-9.88c3.8-6.61,7.88-10.41,8.15-17.71c0.26-6.96-1.4-44.71-2.47-67.84
			c-7.71,3.54-14.67,7.91-20.13,12.98v126.83c11.97,11.12,31.11,18.89,49.71,21.82c1.17-21.89,2.8-53.14,3-61.73
			c0.32-13.61-4.53-15.88-11.34-27.22c-6.8-11.34,1.91-52.49,3.15-52.35c1.23,0.14,0.09,40.04,2.03,41.01
			c1.94,0.97,2.91-40.74,4.7-40.46c1.78,0.27,0.81,40.78,4.05,41.11c3.24,0.33,1.31-41.25,3.1-41.11
			c1.79,0.14,2.61,41.51,5.65,40.14c3.08-1.4,0.97-42.45,2.59-40.5c1.62,1.94,5.83,40.83,5.18,46.98
			c-0.88,8.33-12.02,16.62-12.41,26.91c-0.27,7.02,1.43,45.37,2.5,68.44c1.23,0.05,2.45,0.08,3.66,0.08
			c47.79,0,86.54-38.75,86.54-86.54C246.93,69.54,208.19,30.79,160.39,30.79z M161.82,183.94c-1.23,0-2.45-0.04-3.67-0.1
			c35.79-1.92,64.22-31.55,64.22-67.82c0-36.27-28.43-65.89-64.22-67.82c1.21-0.06,2.44-0.1,3.67-0.1
			c37.51,0,67.92,30.41,67.92,67.92C229.74,153.53,199.33,183.94,161.82,183.94z"/>
		<path class="st3" d="M161.82,48.1c-1.23,0-2.45,0.04-3.67,0.1c35.79,1.93,64.22,31.55,64.22,67.82
			c0,36.27-28.43,65.89-64.22,67.82c1.21,0.07,2.44,0.1,3.67,0.1c37.51,0,67.92-30.41,67.92-67.92
			C229.74,78.51,199.33,48.1,161.82,48.1z"/>
		<path class="st3" d="M144.53,202.57c-0.02,0.44-0.05,0.87-0.07,1.3h12.28c0-0.03,0-0.05,0-0.08
			C152.75,203.63,148.65,203.22,144.53,202.57z"/>
		<path class="st3" d="M154.23,135.35c0.39-10.29,11.53-18.57,12.41-26.91c0.65-6.16-3.56-45.04-5.18-46.98
			c-1.62-1.94,0.48,39.1-2.59,40.5c-3.03,1.38-3.86-40-5.65-40.14c-1.79-0.14,0.14,41.43-3.1,41.11
			c-3.24-0.33-2.26-40.83-4.05-41.11c-1.79-0.28-2.76,41.43-4.7,40.46c-1.94-0.97-0.8-40.87-2.03-41.01
			c-1.24-0.13-9.96,41.02-3.15,52.35c6.81,11.34,11.67,13.61,11.34,27.22c-0.21,8.59-1.83,39.83-3,61.73
			c4.13,0.65,8.22,1.06,12.21,1.22C155.66,180.72,153.97,142.37,154.23,135.35z"/>
		<path class="st3" d="M127.42,36.14c0.1-1.9,0.2-3.69,0.29-5.35h-13.23c0.14,2.83,0.3,6.29,0.48,10.14
			C118.94,39.11,123.13,37.5,127.42,36.14z"/>
		<path class="st3" d="M134.64,130.53c0.52,1.16,0.99,2.39,1.41,3.67C135.69,132.89,135.22,131.66,134.64,130.53z"/>
		<path class="st3" d="M105.03,136.45c0,0.01,0,0.02-0.01,0.03c0.01-0.03,0.02-0.07,0.03-0.1
			C105.04,136.4,105.04,136.42,105.03,136.45z"/>
		<path class="st3" d="M117.42,108.78c-0.28,7.3-4.36,11.11-8.15,17.71c3.08-4.77,7.14-7.68,11.6-7.68c3.67,0,7.06,1.97,9.87,5.32
			c-4.53-6.96-6.87-9.83-6.61-20.85c0.22-9.32,2.12-45.37,3.29-67.14c-4.29,1.36-8.48,2.97-12.46,4.8
			C116.03,64.07,117.68,101.82,117.42,108.78z"/>
		<path class="st3" d="M132.53,164.71c-0.16-0.02-0.29-0.42-0.39-1.08c-1.9,4.09-4.59,7.24-7.74,8.91c3.54-3.23,6.22-8.6,7.38-15.02
			c-0.2-6.48-0.29-15.08-1.5-15.68c-1.94-0.97-2.7,22.6-4.49,22.32c-1.79-0.27-1.02-22.65-4.26-22.97
			c-3.24-0.32-1.1,23.11-2.89,22.97c-1.79-0.14-2.82-23.38-5.86-22c-3.08,1.4-0.76,24.31-2.38,22.36
			c-1.61-1.93-5.89-25.99-5.38-28.05c-1,3.82-1.57,8.05-1.57,12.52c0,16.67,7.79,30.19,17.41,30.19c9.62,0,17.42-13.52,17.42-30.19
			c0-5.38-0.82-10.43-2.24-14.8C139.37,146.37,133.63,164.84,132.53,164.71z"/>
		<path class="st3" d="M105.05,136.37c1.17-4.04,2.67-7.2,4.22-9.88C107.5,129.23,106.06,132.59,105.05,136.37z"/>
		<path class="st3" d="M134.64,130.53c-1.1-2.46-2.42-4.62-3.9-6.4c1.07,1.64,2.26,3.5,3.56,5.75
			C134.42,130.09,134.52,130.31,134.64,130.53z"/>
		<path class="st3" d="M120.87,118.81c-4.46,0-8.52,2.91-11.6,7.68c-1.55,2.69-3.04,5.84-4.22,9.88c-0.01,0.03-0.02,0.07-0.03,0.1
			c-0.51,2.06,3.77,26.12,5.38,28.05c1.62,1.95-0.7-20.96,2.38-22.36c3.03-1.38,4.07,21.86,5.86,22c1.79,0.14-0.35-23.3,2.89-22.97
			c3.24,0.32,2.47,22.7,4.26,22.97c1.79,0.27,2.54-23.29,4.49-22.32c1.21,0.6,1.3,9.2,1.5,15.68c0.41-2.27,0.63-4.66,0.63-7.14
			c0-12.75-5.8-23.3-13.37-25.15c0.07,0,0.14-0.01,0.21-0.01c8.73,0,15.81,10.89,15.81,24.32c0,5.25-1.09,10.11-2.93,14.09
			c0.1,0.67,0.22,1.07,0.39,1.08c1.1,0.12,6.84-18.35,3.51-30.51c-0.42-1.29-0.89-2.51-1.41-3.67c-0.11-0.22-0.22-0.44-0.34-0.65
			c-1.3-2.25-2.49-4.11-3.56-5.75C127.93,120.78,124.53,118.81,120.87,118.81z"/>
		<path class="st2" d="M124.41,172.54c3.15-1.67,5.84-4.82,7.74-8.91c-0.19-1.26-0.28-3.51-0.36-6.11
			C130.62,163.94,127.94,169.31,124.41,172.54z"/>
		<path class="st2" d="M135.07,149.54c0-13.43-7.08-24.32-15.81-24.32c-0.07,0-0.14,0.01-0.21,0.01
			c7.57,1.85,13.37,12.4,13.37,25.15c0,2.48-0.22,4.87-0.63,7.14c0.08,2.6,0.17,4.84,0.36,6.11
			C133.99,159.65,135.07,154.8,135.07,149.54z"/>
	</g>
	<text transform="matrix(1 0 0 1 248.6558 201.6294)" class="st4 st5 st6 st7">ónde Comer?</text>
	<text transform="matrix(1 0 0 1 17.001 161.1196)" class="st4 st5 st6">¿</text>
	<g class="st1">
		<path class="st2" d="M156.74,459.98h3.66c-1.21,0-2.43-0.03-3.66-0.08C156.74,459.92,156.74,459.95,156.74,459.98z"/>
		<path class="st2" d="M94.82,436.85v23.12h49.64c0.02-0.43,0.05-0.86,0.07-1.3C125.94,455.74,106.79,447.97,94.82,436.85z"/>
		<path class="st2" d="M114.47,286.9H94.82v23.12c5.46-5.07,12.42-9.44,20.13-12.98C114.77,293.18,114.61,289.73,114.47,286.9z"/>
		<path class="st2" d="M160.39,286.9h-32.69c-0.09,1.66-0.19,3.45-0.29,5.35C138.31,288.79,149.85,286.9,160.39,286.9z"/>
		<path class="st2" d="M160.39,286.9c-10.55,0-22.09,1.89-32.98,5.35c-1.17,21.77-3.07,57.82-3.29,67.14
			c-0.26,11.02,2.07,13.89,6.61,20.85c1.48,1.77,2.8,3.93,3.9,6.4c0.58,1.13,1.05,2.36,1.41,3.67c1.42,4.37,2.24,9.42,2.24,14.8
			c0,16.67-7.8,30.19-17.42,30.19c-9.62,0-17.41-13.52-17.41-30.19c0-4.47,0.56-8.71,1.57-12.52c0-0.01,0-0.02,0.01-0.03
			c0.01-0.03,0.02-0.05,0.02-0.07c1.01-3.78,2.45-7.14,4.22-9.88c3.8-6.61,7.88-10.41,8.15-17.71c0.26-6.96-1.4-44.71-2.47-67.84
			c-7.71,3.54-14.67,7.91-20.13,12.98v126.83c11.97,11.12,31.11,18.89,49.71,21.82c1.17-21.89,2.8-53.14,3-61.73
			c0.32-13.61-4.53-15.88-11.34-27.22c-6.8-11.34,1.91-52.49,3.15-52.35c1.23,0.14,0.09,40.04,2.03,41.01
			c1.94,0.97,2.91-40.74,4.7-40.46c1.78,0.27,0.81,40.78,4.05,41.11c3.24,0.33,1.31-41.25,3.1-41.11
			c1.79,0.14,2.61,41.51,5.65,40.14c3.08-1.4,0.97-42.45,2.59-40.5c1.62,1.94,5.83,40.83,5.18,46.98
			c-0.88,8.33-12.02,16.62-12.41,26.91c-0.27,7.02,1.43,45.37,2.5,68.44c1.23,0.05,2.45,0.08,3.66,0.08
			c47.79,0,86.54-38.75,86.54-86.54C246.93,325.64,208.19,286.9,160.39,286.9z M161.82,440.05c-1.23,0-2.45-0.04-3.67-0.1
			c35.79-1.92,64.22-31.55,64.22-67.82c0-36.27-28.43-65.89-64.22-67.82c1.21-0.06,2.44-0.1,3.67-0.1
			c37.51,0,67.92,30.41,67.92,67.92C229.74,409.64,199.33,440.05,161.82,440.05z"/>
		<path class="st3" d="M161.82,304.21c-1.23,0-2.45,0.04-3.67,0.1c35.79,1.93,64.22,31.55,64.22,67.82
			c0,36.27-28.43,65.89-64.22,67.82c1.21,0.07,2.44,0.1,3.67,0.1c37.51,0,67.92-30.41,67.92-67.92
			C229.74,334.62,199.33,304.21,161.82,304.21z"/>
		<path class="st3" d="M144.53,458.67c-0.02,0.44-0.05,0.87-0.07,1.3h12.28c0-0.03,0-0.05,0-0.08
			C152.75,459.74,148.65,459.33,144.53,458.67z"/>
		<path class="st3" d="M154.23,391.45c0.39-10.29,11.53-18.57,12.41-26.91c0.65-6.16-3.56-45.04-5.18-46.98
			c-1.62-1.94,0.48,39.1-2.59,40.5c-3.03,1.38-3.86-40-5.65-40.14c-1.79-0.14,0.14,41.43-3.1,41.11
			c-3.24-0.33-2.26-40.83-4.05-41.11c-1.79-0.28-2.76,41.43-4.7,40.46c-1.94-0.97-0.8-40.87-2.03-41.01
			c-1.24-0.13-9.96,41.02-3.15,52.35c6.81,11.34,11.67,13.61,11.34,27.22c-0.21,8.59-1.83,39.83-3,61.73
			c4.13,0.65,8.22,1.06,12.21,1.22C155.66,436.82,153.97,398.47,154.23,391.45z"/>
		<path class="st3" d="M127.42,292.24c0.1-1.9,0.2-3.69,0.29-5.35h-13.23c0.14,2.83,0.3,6.29,0.48,10.14
			C118.94,295.21,123.13,293.61,127.42,292.24z"/>
		<path class="st3" d="M134.64,386.63c0.52,1.16,0.99,2.39,1.41,3.67C135.69,389,135.22,387.76,134.64,386.63z"/>
		<path class="st3" d="M105.03,392.55c0,0.01,0,0.02-0.01,0.03c0.01-0.03,0.02-0.07,0.03-0.1
			C105.04,392.5,105.04,392.52,105.03,392.55z"/>
		<path class="st3" d="M117.42,364.88c-0.28,7.3-4.36,11.11-8.15,17.71c3.08-4.77,7.14-7.68,11.6-7.68c3.67,0,7.06,1.97,9.87,5.32
			c-4.53-6.96-6.87-9.83-6.61-20.85c0.22-9.32,2.12-45.37,3.29-67.14c-4.29,1.36-8.48,2.97-12.46,4.8
			C116.03,320.17,117.68,357.92,117.42,364.88z"/>
		<path class="st3" d="M132.53,420.82c-0.16-0.02-0.29-0.42-0.39-1.08c-1.9,4.09-4.59,7.24-7.74,8.91c3.54-3.23,6.22-8.6,7.38-15.02
			c-0.2-6.48-0.29-15.08-1.5-15.68c-1.94-0.97-2.7,22.6-4.49,22.32c-1.79-0.27-1.02-22.65-4.26-22.97
			c-3.24-0.32-1.1,23.11-2.89,22.97c-1.79-0.14-2.82-23.38-5.86-22c-3.08,1.4-0.76,24.31-2.38,22.36
			c-1.61-1.93-5.89-25.99-5.38-28.05c-1,3.82-1.57,8.05-1.57,12.52c0,16.67,7.79,30.19,17.41,30.19c9.62,0,17.42-13.52,17.42-30.19
			c0-5.38-0.82-10.43-2.24-14.8C139.37,402.47,133.63,420.94,132.53,420.82z"/>
		<path class="st3" d="M105.05,392.48c1.17-4.04,2.67-7.2,4.22-9.88C107.5,385.34,106.06,388.69,105.05,392.48z"/>
		<path class="st3" d="M134.64,386.63c-1.1-2.46-2.42-4.62-3.9-6.4c1.07,1.64,2.26,3.5,3.56,5.75
			C134.42,386.19,134.52,386.41,134.64,386.63z"/>
		<path class="st3" d="M120.87,374.91c-4.46,0-8.52,2.91-11.6,7.68c-1.55,2.69-3.04,5.84-4.22,9.88c-0.01,0.03-0.02,0.07-0.03,0.1
			c-0.51,2.06,3.77,26.12,5.38,28.05c1.62,1.95-0.7-20.96,2.38-22.36c3.03-1.38,4.07,21.86,5.86,22c1.79,0.14-0.35-23.3,2.89-22.97
			c3.24,0.32,2.47,22.7,4.26,22.97c1.79,0.27,2.54-23.29,4.49-22.32c1.21,0.6,1.3,9.2,1.5,15.68c0.41-2.27,0.63-4.66,0.63-7.14
			c0-12.75-5.8-23.3-13.37-25.15c0.07,0,0.14-0.01,0.21-0.01c8.73,0,15.81,10.89,15.81,24.32c0,5.25-1.09,10.11-2.93,14.09
			c0.1,0.67,0.22,1.07,0.39,1.08c1.1,0.12,6.84-18.35,3.51-30.51c-0.42-1.29-0.89-2.51-1.41-3.67c-0.11-0.22-0.22-0.44-0.34-0.65
			c-1.3-2.25-2.49-4.11-3.56-5.75C127.93,376.88,124.53,374.91,120.87,374.91z"/>
		<path class="st2" d="M124.41,428.64c3.15-1.67,5.84-4.82,7.74-8.91c-0.19-1.26-0.28-3.51-0.36-6.11
			C130.62,420.05,127.94,425.42,124.41,428.64z"/>
		<path class="st2" d="M135.07,405.65c0-13.43-7.08-24.32-15.81-24.32c-0.07,0-0.14,0.01-0.21,0.01
			c7.57,1.85,13.37,12.4,13.37,25.15c0,2.48-0.22,4.87-0.63,7.14c0.08,2.6,0.17,4.84,0.36,6.11
			C133.99,415.76,135.07,410.9,135.07,405.65z"/>
	</g>
	<text transform="matrix(1 0 0 1 248.6558 457.7334)" class="st4 st5 st6 st7">ónde Comer?</text>
	<g class="st1">
		<path class="st2" d="M152.74,738.73h3.66c-1.21,0-2.43-0.03-3.66-0.08C152.74,738.68,152.74,738.71,152.74,738.73z"/>
		<path class="st2" d="M90.82,715.61v23.12h49.64c0.02-0.43,0.05-0.86,0.07-1.3C121.94,734.5,102.79,726.73,90.82,715.61z"/>
		<path class="st2" d="M110.47,565.66H90.82v23.12c5.46-5.07,12.42-9.44,20.13-12.98C110.77,571.94,110.61,568.49,110.47,565.66z"/>
		<path class="st2" d="M156.39,565.66h-32.69c-0.09,1.66-0.19,3.45-0.29,5.35C134.31,567.55,145.85,565.66,156.39,565.66z"/>
		<path class="st2" d="M156.39,565.66c-10.55,0-22.09,1.89-32.98,5.35c-1.17,21.77-3.07,57.82-3.29,67.14
			c-0.26,11.02,2.07,13.89,6.61,20.85c1.48,1.77,2.8,3.93,3.9,6.4c0.58,1.13,1.05,2.36,1.41,3.67c1.42,4.37,2.24,9.42,2.24,14.8
			c0,16.67-7.8,30.19-17.42,30.19c-9.62,0-17.41-13.52-17.41-30.19c0-4.47,0.56-8.71,1.57-12.52c0-0.01,0-0.02,0.01-0.03
			c0.01-0.03,0.02-0.05,0.02-0.07c1.01-3.78,2.45-7.14,4.22-9.88c3.8-6.61,7.88-10.41,8.15-17.71c0.26-6.96-1.4-44.71-2.47-67.84
			c-7.71,3.54-14.67,7.91-20.13,12.98v126.83c11.97,11.12,31.11,18.89,49.71,21.82c1.17-21.89,2.8-53.14,3-61.73
			c0.32-13.61-4.53-15.88-11.34-27.22c-6.8-11.34,1.91-52.49,3.15-52.35c1.23,0.14,0.09,40.04,2.03,41.01
			c1.94,0.97,2.91-40.74,4.7-40.46c1.78,0.27,0.81,40.78,4.05,41.11c3.24,0.33,1.31-41.25,3.1-41.11
			c1.79,0.14,2.61,41.51,5.65,40.14c3.08-1.4,0.97-42.45,2.59-40.5c1.62,1.94,5.83,40.83,5.18,46.98
			c-0.88,8.33-12.02,16.62-12.41,26.91c-0.27,7.02,1.43,45.37,2.5,68.44c1.23,0.05,2.45,0.08,3.66,0.08
			c47.79,0,86.54-38.75,86.54-86.54C242.93,604.4,204.19,565.66,156.39,565.66z M157.82,718.81c-1.23,0-2.45-0.04-3.67-0.1
			c35.79-1.92,64.22-31.55,64.22-67.82c0-36.27-28.43-65.89-64.22-67.82c1.21-0.06,2.44-0.1,3.67-0.1
			c37.51,0,67.92,30.41,67.92,67.92C225.74,688.4,195.33,718.81,157.82,718.81z"/>
		<path class="st3" d="M157.82,582.96c-1.23,0-2.45,0.04-3.67,0.1c35.79,1.93,64.22,31.55,64.22,67.82
			c0,36.27-28.43,65.89-64.22,67.82c1.21,0.07,2.44,0.1,3.67,0.1c37.51,0,67.92-30.41,67.92-67.92
			C225.74,613.37,195.33,582.96,157.82,582.96z"/>
		<path class="st3" d="M140.53,737.43c-0.02,0.44-0.05,0.87-0.07,1.3h12.28c0-0.03,0-0.05,0-0.08
			C148.75,738.5,144.65,738.09,140.53,737.43z"/>
		<path class="st3" d="M150.23,670.21c0.39-10.29,11.53-18.57,12.41-26.91c0.65-6.16-3.56-45.04-5.18-46.98
			c-1.62-1.94,0.48,39.1-2.59,40.5c-3.03,1.38-3.86-40-5.65-40.14c-1.79-0.14,0.14,41.43-3.1,41.11
			c-3.24-0.33-2.26-40.83-4.05-41.11c-1.79-0.28-2.76,41.43-4.7,40.46c-1.94-0.97-0.8-40.87-2.03-41.01
			c-1.24-0.13-9.96,41.02-3.15,52.35c6.81,11.34,11.67,13.61,11.34,27.22c-0.21,8.59-1.83,39.83-3,61.73
			c4.13,0.65,8.22,1.06,12.21,1.22C151.66,715.58,149.97,677.23,150.23,670.21z"/>
		<path class="st3" d="M123.42,571c0.1-1.9,0.2-3.69,0.29-5.35h-13.23c0.14,2.83,0.3,6.29,0.48,10.14
			C114.94,573.97,119.13,572.36,123.42,571z"/>
		<path class="st3" d="M130.64,665.39c0.52,1.16,0.99,2.39,1.41,3.67C131.69,667.75,131.22,666.52,130.64,665.39z"/>
		<path class="st3" d="M101.03,671.31c0,0.01,0,0.02-0.01,0.03c0.01-0.03,0.02-0.07,0.03-0.1
			C101.04,671.26,101.04,671.28,101.03,671.31z"/>
		<path class="st3" d="M113.42,643.64c-0.28,7.3-4.36,11.11-8.15,17.71c3.08-4.77,7.14-7.68,11.6-7.68c3.67,0,7.06,1.97,9.87,5.32
			c-4.53-6.96-6.87-9.83-6.61-20.85c0.22-9.32,2.12-45.37,3.29-67.14c-4.29,1.36-8.48,2.97-12.46,4.8
			C112.03,598.93,113.68,636.68,113.42,643.64z"/>
		<path class="st3" d="M128.53,699.58c-0.16-0.02-0.29-0.42-0.39-1.08c-1.9,4.09-4.59,7.24-7.74,8.91c3.54-3.23,6.22-8.6,7.38-15.02
			c-0.2-6.48-0.29-15.08-1.5-15.68c-1.94-0.97-2.7,22.6-4.49,22.32c-1.79-0.27-1.02-22.65-4.26-22.97
			c-3.24-0.32-1.1,23.11-2.89,22.97c-1.79-0.14-2.82-23.38-5.86-22c-3.08,1.4-0.76,24.31-2.38,22.36
			c-1.61-1.93-5.89-25.99-5.38-28.05c-1,3.82-1.57,8.05-1.57,12.52c0,16.67,7.79,30.19,17.41,30.19c9.62,0,17.42-13.52,17.42-30.19
			c0-5.38-0.82-10.43-2.24-14.8C135.37,681.23,129.63,699.7,128.53,699.58z"/>
		<path class="st3" d="M101.05,671.24c1.17-4.04,2.67-7.2,4.22-9.88C103.5,664.09,102.06,667.45,101.05,671.24z"/>
		<path class="st3" d="M130.64,665.39c-1.1-2.46-2.42-4.62-3.9-6.4c1.07,1.64,2.26,3.5,3.56,5.75
			C130.42,664.95,130.52,665.17,130.64,665.39z"/>
		<path class="st3" d="M116.87,653.67c-4.46,0-8.52,2.91-11.6,7.68c-1.55,2.69-3.04,5.84-4.22,9.88c-0.01,0.03-0.02,0.07-0.03,0.1
			c-0.51,2.06,3.77,26.12,5.38,28.05c1.62,1.95-0.7-20.96,2.38-22.36c3.03-1.38,4.07,21.86,5.86,22c1.79,0.14-0.35-23.3,2.89-22.97
			c3.24,0.32,2.47,22.7,4.26,22.97c1.79,0.27,2.54-23.29,4.49-22.32c1.21,0.6,1.3,9.2,1.5,15.68c0.41-2.27,0.63-4.66,0.63-7.14
			c0-12.75-5.8-23.3-13.37-25.15c0.07,0,0.14-0.01,0.21-0.01c8.73,0,15.81,10.89,15.81,24.32c0,5.25-1.09,10.11-2.93,14.09
			c0.1,0.67,0.22,1.07,0.39,1.08c1.1,0.12,6.84-18.35,3.51-30.51c-0.42-1.29-0.89-2.51-1.41-3.67c-0.11-0.22-0.22-0.44-0.34-0.65
			c-1.3-2.25-2.49-4.11-3.56-5.75C123.93,655.64,120.53,653.67,116.87,653.67z"/>
		<path class="st2" d="M120.41,707.4c3.15-1.67,5.84-4.82,7.74-8.91c-0.19-1.26-0.28-3.51-0.36-6.11
			C126.62,698.8,123.94,704.18,120.41,707.4z"/>
		<path class="st2" d="M131.07,684.4c0-13.43-7.08-24.32-15.81-24.32c-0.07,0-0.14,0.01-0.21,0.01c7.57,1.85,13.37,12.4,13.37,25.15
			c0,2.48-0.22,4.87-0.63,7.14c0.08,2.6,0.17,4.84,0.36,6.11C129.99,694.52,131.07,689.66,131.07,684.4z"/>
	</g>
	<text transform="matrix(1 0 0 1 326.6558 736.4922)" class="st4 st5 st6 st7">dónde comer?</text>
	<text transform="matrix(1 0 0 1 264.6558 695.4922)" class="st4 st5 st6">¿</text>
</g>
<g id="Layer_2">
	<g>
		<path class="st2" d="M629.15,720h14.43c-4.76,0-9.59-0.12-14.44-0.31C629.14,719.79,629.15,719.9,629.15,720z"/>
		<path class="st2" d="M643.58,37h-129c-0.35,6.54-0.73,13.59-1.14,21.1c-4.62,85.92-12.1,228.16-12.97,264.95
			c-1.04,43.47,8.19,54.82,26.07,82.27c5.85,7,11.04,15.52,15.39,25.25c2.31,4.46,4.14,9.33,5.55,14.49
			c5.61,17.26,8.83,37.18,8.83,58.4c0,65.8-30.77,119.14-68.72,119.14c-37.96,0-68.71-53.34-68.71-119.14
			c0-17.63,2.23-34.36,6.19-49.42c0.01-0.03,0.01-0.09,0.02-0.12c0.03-0.1,0.06-0.19,0.09-0.29c3.97-14.92,9.66-28.18,16.64-39
			c14.98-26.07,31.08-41.08,32.17-69.9c1.04-27.46-5.51-176.42-9.74-267.71c-0.71-15.22-1.35-28.84-1.88-40.02h-77.55v91.24v500.51
			V720H580.7c0.09-1.7,0.18-3.41,0.27-5.14c4.62-86.39,11.03-209.69,11.84-243.58c1.28-53.7-17.89-62.66-44.76-107.4
			c-26.85-44.74,7.55-207.13,12.44-206.6c4.87,0.55,0.35,158.01,8.02,161.85c7.67,3.83,11.49-160.75,18.55-159.66
			c7.04,1.08,3.18,160.93,15.97,162.22c12.79,1.29,5.18-162.77,12.24-162.22c7.06,0.53,10.32,163.83,22.29,158.38
			c12.14-5.53,3.83-167.5,10.23-159.83c6.39,7.67,23.01,161.11,20.44,185.4c-3.46,32.89-47.42,65.57-48.97,106.19
			c-1.05,27.7,5.63,179.03,9.86,270.08c4.86,0.19,9.68,0.31,14.44,0.31c188.6,0,341.5-152.9,341.5-341.5
			C985.08,189.89,832.18,37,643.58,37z M649.22,641.36c-4.85,0-9.68-0.14-14.46-0.41c141.23-7.59,253.41-124.49,253.41-267.62
			c0-143.12-112.18-260.02-253.41-267.62c4.78-0.25,9.61-0.41,14.46-0.41c148.02,0,268.02,120,268.02,268.03
			C917.23,521.36,797.24,641.36,649.22,641.36z"/>
		<path class="st3" d="M649.22,105.3c-4.85,0-9.68,0.16-14.46,0.41c141.23,7.6,253.41,124.5,253.41,267.62
			c0,143.13-112.18,260.03-253.41,267.62c4.78,0.26,9.61,0.41,14.46,0.41c148.02,0,268.02-120,268.02-268.03
			C917.23,225.3,797.24,105.3,649.22,105.3z"/>
		<path class="st3" d="M580.97,714.86c-0.09,1.73-0.18,3.44-0.27,5.14h48.45c0-0.1-0.01-0.21-0.02-0.31
			C613.41,719.06,597.25,717.44,580.97,714.86z"/>
		<path class="st3" d="M619.27,449.6c1.55-40.62,45.5-73.3,48.97-106.19c2.57-24.29-14.05-177.72-20.44-185.4
			c-6.4-7.67,1.91,154.3-10.23,159.83c-11.97,5.44-15.23-157.85-22.29-158.38c-7.07-0.55,0.55,163.51-12.24,162.22
			c-12.79-1.28-8.93-161.14-15.97-162.22c-7.07-1.09-10.88,163.49-18.55,159.66c-7.67-3.83-3.15-161.3-8.02-161.85
			c-4.89-0.53-39.29,161.86-12.44,206.6c26.87,44.74,46.04,53.7,44.76,107.4c-0.81,33.89-7.22,157.19-11.84,243.58
			c16.28,2.57,32.44,4.2,48.17,4.83C624.9,628.63,618.22,477.3,619.27,449.6z"/>
		<path class="st3" d="M541.94,430.57c2.04,4.58,3.9,9.42,5.55,14.49C546.08,439.9,544.24,435.03,541.94,430.57z"/>
		<path class="st3" d="M425.1,453.92c-0.01,0.03-0.01,0.09-0.02,0.12c0.04-0.14,0.07-0.27,0.11-0.41
			C425.16,453.73,425.13,453.82,425.1,453.92z"/>
		<path class="st3" d="M500.47,323.05c0.87-36.79,8.35-179.03,12.97-264.95c0.4-7.5,0.79-14.56,1.14-21.1h-52.21
			c0.53,11.18,1.17,24.8,1.88,40.02c4.24,91.29,10.78,240.25,9.74,267.71c-1.09,28.82-17.2,43.83-32.17,69.9
			c12.15-18.84,28.18-30.3,45.77-30.3c14.47,0,27.88,7.76,38.95,20.99C508.66,377.87,499.43,366.52,500.47,323.05z"/>
		<path class="st3" d="M533.62,565.47c-0.64-0.07-1.13-1.64-1.52-4.28c-7.48,16.14-18.11,28.59-30.53,35.16
			c13.95-12.73,24.53-33.93,29.11-59.26c-0.77-25.57-1.16-59.5-5.92-61.88c-7.67-3.83-10.67,89.17-17.71,88.09
			c-7.05-1.08-4.03-89.37-16.82-90.65c-12.78-1.28-4.34,91.19-11.41,90.65c-7.05-0.54-11.14-92.25-23.11-86.81
			c-12.14,5.52-3.01,95.92-9.39,88.24c-6.36-7.63-23.25-102.55-21.24-110.69c-3.96,15.06-6.19,31.79-6.19,49.42
			c0,65.8,30.75,119.14,68.71,119.14c37.96,0,68.72-53.34,68.72-119.14c0-21.22-3.22-41.14-8.83-58.4
			C560.62,493.07,537.95,565.95,533.62,565.47z"/>
		<path class="st3" d="M425.19,453.63c4.63-15.96,10.54-28.39,16.64-39C434.84,425.45,429.16,438.71,425.19,453.63z"/>
		<path class="st3" d="M541.94,430.57c-4.35-9.72-9.54-18.25-15.39-25.25c4.21,6.47,8.9,13.82,14.05,22.7
			C541.07,428.84,541.49,429.71,541.94,430.57z"/>
		<path class="st3" d="M487.59,384.33c-17.58,0-33.62,11.47-45.77,30.3c-6.1,10.61-12.01,23.04-16.64,39
			c-0.04,0.14-0.07,0.27-0.11,0.41c-2.01,8.14,14.88,103.06,21.24,110.69c6.39,7.68-2.75-82.72,9.39-88.24
			c11.97-5.44,16.06,86.26,23.11,86.81c7.06,0.54-1.38-91.93,11.41-90.65c12.78,1.27,9.76,89.57,16.82,90.65
			c7.05,1.08,10.04-91.92,17.71-88.09c4.76,2.38,5.15,36.32,5.92,61.88c1.61-8.94,2.5-18.39,2.5-28.18
			c0-50.31-22.89-91.95-52.75-99.25c0.28-0.01,0.56-0.03,0.85-0.03c34.45,0,62.37,42.97,62.37,95.98c0,20.73-4.29,39.91-11.55,55.59
			c0.39,2.64,0.88,4.21,1.52,4.28c4.32,0.48,26.99-72.41,13.86-120.41c-1.65-5.07-3.51-9.91-5.55-14.49
			c-0.44-0.85-0.87-1.72-1.34-2.55c-5.15-8.88-9.84-16.23-14.05-22.7C515.47,392.09,502.06,384.33,487.59,384.33z"/>
		<path class="st2" d="M501.57,596.35c12.42-6.57,23.06-19.02,30.53-35.16c-0.74-4.99-1.11-13.86-1.42-24.1
			C526.1,562.43,515.52,583.63,501.57,596.35z"/>
		<path class="st2" d="M543.66,505.6c0-53-27.92-95.98-62.37-95.98c-0.29,0-0.57,0.02-0.85,0.03c29.86,7.3,52.75,48.95,52.75,99.25
			c0,9.79-0.89,19.24-2.5,28.18c0.31,10.24,0.68,19.12,1.42,24.1C539.37,545.51,543.66,526.34,543.66,505.6z"/>
	</g>
</g>
<g id="Layer_3" class="st0">
	<g class="st1">
		<path class="st2" d="M168.81,450.19h4.37c-1.44,0-2.9-0.04-4.37-0.09C168.81,450.13,168.81,450.16,168.81,450.19z"/>
		<path class="st2" d="M94.82,422.56v27.63h59.32c0.03-0.51,0.05-1.03,0.08-1.56C132,445.13,109.13,435.84,94.82,422.56z"/>
		<path class="st2" d="M118.31,243.36H94.82v27.63c6.52-6.06,14.84-11.28,24.05-15.51C118.66,250.87,118.47,246.74,118.31,243.36z"
			/>
		<path class="st2" d="M173.18,243.36h-39.06c-0.11,1.98-0.22,4.12-0.34,6.39C146.79,245.62,160.58,243.36,173.18,243.36z"/>
		<path class="st2" d="M173.18,243.36c-12.6,0-26.4,2.26-39.41,6.39c-1.4,26.02-3.66,69.09-3.93,80.24
			c-0.32,13.17,2.48,16.6,7.89,24.91c1.77,2.12,3.34,4.7,4.66,7.65c0.7,1.35,1.25,2.83,1.68,4.39c1.7,5.23,2.67,11.26,2.67,17.69
			c0,19.93-9.32,36.08-20.81,36.08c-11.49,0-20.81-16.15-20.81-36.08c0-5.34,0.67-10.41,1.88-14.97c0-0.01,0-0.03,0.01-0.04
			c0.01-0.03,0.02-0.06,0.03-0.09c1.2-4.52,2.92-8.53,5.04-11.81c4.54-7.89,9.41-12.44,9.74-21.17c0.32-8.32-1.67-53.43-2.95-81.07
			c-9.22,4.23-17.53,9.45-24.05,15.51v151.57c14.3,13.28,37.18,22.57,59.4,26.08c1.4-26.16,3.34-63.5,3.59-73.76
			c0.39-16.26-5.42-18.98-13.55-32.52c-8.13-13.55,2.29-62.72,3.77-62.56c1.48,0.17,0.11,47.85,2.43,49.01
			c2.32,1.16,3.48-48.68,5.62-48.35c2.13,0.33,0.96,48.74,4.84,49.12c3.87,0.39,1.57-49.29,3.71-49.12
			c2.14,0.16,3.12,49.61,6.75,47.96c3.68-1.67,1.16-50.72,3.1-48.4c1.94,2.32,6.97,48.79,6.19,56.14
			c-1.05,9.96-14.36,19.86-14.83,32.16c-0.32,8.39,1.7,54.22,2.99,81.79c1.47,0.06,2.93,0.09,4.37,0.09
			c57.11,0,103.42-46.3,103.42-103.42C276.6,289.66,230.3,243.36,173.18,243.36z M174.89,426.37c-1.47,0-2.93-0.04-4.38-0.12
			c42.77-2.3,76.74-37.7,76.74-81.04c0-43.34-33.97-78.74-76.74-81.04c1.45-0.08,2.91-0.12,4.38-0.12
			c44.83,0,81.16,36.34,81.16,81.17C256.05,390.03,219.71,426.37,174.89,426.37z"/>
		<path class="st3" d="M174.89,264.04c-1.47,0-2.93,0.05-4.38,0.12c42.77,2.3,76.74,37.7,76.74,81.04
			c0,43.34-33.97,78.74-76.74,81.04c1.45,0.08,2.91,0.12,4.38,0.12c44.83,0,81.16-36.34,81.16-81.17
			C256.05,300.38,219.71,264.04,174.89,264.04z"/>
		<path class="st3" d="M154.22,448.63c-0.03,0.52-0.05,1.04-0.08,1.56h14.67c0-0.03,0-0.06,0-0.09
			C164.05,449.91,159.15,449.41,154.22,448.63z"/>
		<path class="st3" d="M165.82,368.3c0.47-12.3,13.78-22.2,14.83-32.16c0.78-7.36-4.25-53.82-6.19-56.14
			c-1.94-2.32,0.58,46.73-3.1,48.4c-3.63,1.65-4.61-47.8-6.75-47.96c-2.14-0.17,0.17,49.52-3.71,49.12
			c-3.87-0.39-2.7-48.8-4.84-49.12c-2.14-0.33-3.29,49.51-5.62,48.35c-2.32-1.16-0.95-48.85-2.43-49.01
			c-1.48-0.16-11.9,49.01-3.77,62.56c8.14,13.55,13.94,16.26,13.55,32.52c-0.25,10.26-2.19,47.6-3.59,73.76
			c4.93,0.78,9.82,1.27,14.59,1.46C167.53,422.52,165.5,376.69,165.82,368.3z"/>
		<path class="st3" d="M133.77,249.74c0.12-2.27,0.24-4.41,0.34-6.39h-15.81c0.16,3.39,0.36,7.51,0.57,12.12
			C123.64,253.29,128.64,251.37,133.77,249.74z"/>
		<path class="st3" d="M142.4,362.54c0.62,1.39,1.18,2.85,1.68,4.39C143.66,365.37,143.1,363.89,142.4,362.54z"/>
		<path class="st3" d="M107.02,369.61c0,0.01,0,0.03-0.01,0.04c0.01-0.04,0.02-0.08,0.03-0.12
			C107.04,369.55,107.03,369.58,107.02,369.61z"/>
		<path class="st3" d="M121.83,336.55c-0.33,8.73-5.21,13.27-9.74,21.17c3.68-5.71,8.54-9.18,13.86-9.18
			c4.38,0,8.44,2.35,11.79,6.36c-5.42-8.31-8.21-11.75-7.89-24.91c0.26-11.14,2.53-54.22,3.93-80.24
			c-5.13,1.63-10.13,3.55-14.9,5.73C120.16,283.12,122.14,328.23,121.83,336.55z"/>
		<path class="st3" d="M139.89,403.39c-0.19-0.02-0.34-0.5-0.46-1.3c-2.26,4.89-5.48,8.66-9.25,10.65
			c4.22-3.85,7.43-10.27,8.82-17.95c-0.23-7.74-0.35-18.02-1.79-18.74c-2.32-1.16-3.23,27-5.36,26.68
			c-2.14-0.33-1.22-27.07-5.09-27.45c-3.87-0.39-1.32,27.62-3.45,27.45c-2.14-0.17-3.37-27.94-7-26.29
			c-3.68,1.67-0.91,29.05-2.84,26.72c-1.93-2.31-7.04-31.06-6.43-33.52c-1.2,4.56-1.88,9.63-1.88,14.97
			c0,19.93,9.31,36.08,20.81,36.08c11.5,0,20.81-16.15,20.81-36.08c0-6.43-0.97-12.46-2.67-17.69
			C148.06,381.47,141.19,403.54,139.89,403.39z"/>
		<path class="st3" d="M107.05,369.53c1.4-4.83,3.19-8.6,5.04-11.81C109.97,360.99,108.25,365.01,107.05,369.53z"/>
		<path class="st3" d="M142.4,362.54c-1.32-2.94-2.89-5.53-4.66-7.65c1.28,1.96,2.7,4.18,4.25,6.87
			C142.14,362.02,142.27,362.28,142.4,362.54z"/>
		<path class="st3" d="M125.95,348.54c-5.33,0-10.18,3.47-13.86,9.18c-1.85,3.21-3.64,6.98-5.04,11.81
			c-0.01,0.04-0.02,0.08-0.03,0.12c-0.61,2.47,4.51,31.21,6.43,33.52c1.93,2.33-0.83-25.05,2.84-26.72c3.63-1.65,4.86,26.12,7,26.29
			c2.14,0.17-0.42-27.84,3.45-27.45c3.87,0.39,2.96,27.12,5.09,27.45c2.13,0.33,3.04-27.84,5.36-26.68c1.44,0.72,1.56,11,1.79,18.74
			c0.49-2.71,0.76-5.57,0.76-8.53c0-15.23-6.93-27.85-15.97-30.06c0.08,0,0.17-0.01,0.26-0.01c10.43,0,18.89,13.01,18.89,29.06
			c0,6.28-1.3,12.08-3.5,16.83c0.12,0.8,0.27,1.27,0.46,1.3c1.31,0.15,8.17-21.93,4.2-36.47c-0.5-1.54-1.06-3-1.68-4.39
			c-0.13-0.26-0.26-0.52-0.41-0.77c-1.56-2.69-2.98-4.92-4.25-6.87C134.39,350.89,130.33,348.54,125.95,348.54z"/>
		<path class="st2" d="M130.18,412.75c3.76-1.99,6.98-5.76,9.25-10.65c-0.22-1.51-0.34-4.2-0.43-7.3
			C137.61,402.47,134.4,408.89,130.18,412.75z"/>
		<path class="st2" d="M142.92,385.26c0-16.05-8.46-29.06-18.89-29.06c-0.09,0-0.17,0.01-0.26,0.01
			c9.04,2.21,15.97,14.82,15.97,30.06c0,2.97-0.27,5.83-0.76,8.53c0.09,3.1,0.21,5.79,0.43,7.3
			C141.62,397.35,142.92,391.54,142.92,385.26z"/>
	</g>
	<text transform="matrix(1 0 0 1 278.6582 447.5098)" class="st4 st5 st8 st9">ónde Comer?</text>
</g>
</svg>
