<?xml version="1.0" encoding="utf-8"?>
<!-- Generator: Adobe Illustrator 25.1.0, SVG Export Plug-In . SVG Version: 6.00 Build 0)  -->
<svg version="1.1" id="Capa_1" xmlns="http://www.w3.org/2000/svg" xmlns:xlink="http://www.w3.org/1999/xlink" x="0px" y="0px"
	 viewBox="0 0 1366 376.5" style="enable-background:new 0 0 1366 376.5;" xml:space="preserve">
<style type="text/css">
	.st0{display:none;}
	.st1{display:inline;}
	.st2{fill:#F15A29;}
	.st3{fill:#FFFFFF;}
	.st4{display:inline;fill:#F15A29;}
	.st5{font-family:'ArialMT';}
	.st6{font-size:209.6878px;}
	.st7{letter-spacing:-7;}
	.st8{font-size:250.5831px;}
	.st9{letter-spacing:-9;}
</style>
<g id="Layer_1" class="st0">
	<g class="st1">
		<path class="st2" d="M156.7,44.6h3.7C159.2,44.6,158,44.5,156.7,44.6C156.7,44.5,156.7,44.5,156.7,44.6z"/>
		<path class="st2" d="M94.8,21.4v23.1h49.6c0-0.4,0.1-0.9,0.1-1.3C125.9,40.3,106.8,32.5,94.8,21.4z"/>
		<path class="st2" d="M114.5-128.5H94.8v23.1c5.5-5.1,12.4-9.4,20.1-13C114.8-122.2,114.6-125.7,114.5-128.5z"/>
		<path class="st2" d="M160.4-128.5h-32.7c-0.1,1.7-0.2,3.4-0.3,5.3C138.3-126.6,149.9-128.5,160.4-128.5z"/>
		<path class="st2" d="M160.4-128.5c-10.6,0-22.1,1.9-33,5.3c-1.2,21.8-3.1,57.8-3.3,67.1c-0.3,11,2.1,13.9,6.6,20.8
			c1.5,1.8,2.8,3.9,3.9,6.4c0.6,1.1,1.1,2.4,1.4,3.7c1.4,4.4,2.2,9.4,2.2,14.8c0,16.7-7.8,30.2-17.4,30.2s-17.4-13.5-17.4-30.2
			c0-4.5,0.6-8.7,1.6-12.5c0,0,0,0,0,0c0,0,0-0.1,0-0.1c1-3.8,2.4-7.1,4.2-9.9c3.8-6.6,7.9-10.4,8.2-17.7c0.3-7-1.4-44.7-2.5-67.8
			c-7.7,3.5-14.7,7.9-20.1,13V21.4c12,11.1,31.1,18.9,49.7,21.8c1.2-21.9,2.8-53.1,3-61.7c0.3-13.6-4.5-15.9-11.3-27.2
			c-6.8-11.3,1.9-52.5,3.1-52.3c1.2,0.1,0.1,40,2,41s2.9-40.7,4.7-40.5c1.8,0.3,0.8,40.8,4.1,41.1s1.3-41.2,3.1-41.1
			c1.8,0.1,2.6,41.5,5.6,40.1c3.1-1.4,1-42.5,2.6-40.5c1.6,1.9,5.8,40.8,5.2,47c-0.9,8.3-12,16.6-12.4,26.9
			c-0.3,7,1.4,45.4,2.5,68.4c1.2,0.1,2.4,0.1,3.7,0.1c47.8,0,86.5-38.8,86.5-86.5C246.9-89.8,208.2-128.5,160.4-128.5z M161.8,24.6
			c-1.2,0-2.4,0-3.7-0.1c35.8-1.9,64.2-31.6,64.2-67.8s-28.4-65.9-64.2-67.8c1.2-0.1,2.4-0.1,3.7-0.1c37.5,0,67.9,30.4,67.9,67.9
			S199.3,24.6,161.8,24.6z"/>
		<path class="st3" d="M161.8-111.2c-1.2,0-2.4,0-3.7,0.1c35.8,1.9,64.2,31.6,64.2,67.8s-28.4,65.9-64.2,67.8
			c1.2,0.1,2.4,0.1,3.7,0.1c37.5,0,67.9-30.4,67.9-67.9S199.3-111.2,161.8-111.2z"/>
		<path class="st3" d="M144.5,43.3c0,0.4-0.1,0.9-0.1,1.3h12.3c0,0,0-0.1,0-0.1C152.8,44.3,148.6,43.9,144.5,43.3z"/>
		<path class="st3" d="M154.2-24c0.4-10.3,11.5-18.6,12.4-26.9c0.6-6.2-3.6-45-5.2-47c-1.6-1.9,0.5,39.1-2.6,40.5
			c-3,1.4-3.9-40-5.6-40.1s0.1,41.4-3.1,41.1c-3.2-0.3-2.3-40.8-4.1-41.1c-1.8-0.3-2.8,41.4-4.7,40.5s-0.8-40.9-2-41
			c-1.2-0.1-10,41-3.1,52.4c6.8,11.3,11.7,13.6,11.3,27.2c-0.2,8.6-1.8,39.8-3,61.7c4.1,0.6,8.2,1.1,12.2,1.2
			C155.7,21.4,154-16.9,154.2-24z"/>
		<path class="st3" d="M127.4-123.2c0.1-1.9,0.2-3.7,0.3-5.3h-13.2c0.1,2.8,0.3,6.3,0.5,10.1C118.9-120.2,123.1-121.8,127.4-123.2z"
			/>
		<path class="st3" d="M134.6-28.8c0.5,1.2,1,2.4,1.4,3.7C135.7-26.4,135.2-27.7,134.6-28.8z"/>
		<path class="st3" d="M105-22.9C105-22.9,105-22.8,105-22.9C105-22.9,105-22.9,105-22.9C105-22.9,105-22.9,105-22.9z"/>
		<path class="st3" d="M117.4-50.5c-0.3,7.3-4.4,11.1-8.2,17.7c3.1-4.8,7.1-7.7,11.6-7.7c3.7,0,7.1,2,9.9,5.3
			c-4.5-7-6.9-9.8-6.6-20.8c0.2-9.3,2.1-45.4,3.3-67.1c-4.3,1.4-8.5,3-12.5,4.8C116-95.2,117.7-57.5,117.4-50.5z"/>
		<path class="st3" d="M132.5,5.4c-0.2,0-0.3-0.4-0.4-1.1c-1.9,4.1-4.6,7.2-7.7,8.9c3.5-3.2,6.2-8.6,7.4-15
			c-0.2-6.5-0.3-15.1-1.5-15.7c-1.9-1-2.7,22.6-4.5,22.3c-1.8-0.3-1-22.6-4.3-23c-3.2-0.3-1.1,23.1-2.9,23s-2.8-23.4-5.9-22
			c-3.1,1.4-0.8,24.3-2.4,22.4c-1.6-1.9-5.9-26-5.4-28.1c-1,3.8-1.6,8.1-1.6,12.5c0,16.7,7.8,30.2,17.4,30.2s17.4-13.5,17.4-30.2
			c0-5.4-0.8-10.4-2.2-14.8C139.4-12.9,133.6,5.5,132.5,5.4z"/>
		<path class="st3" d="M105.1-22.9c1.2-4,2.7-7.2,4.2-9.9C107.5-30.1,106.1-26.7,105.1-22.9z"/>
		<path class="st3" d="M134.6-28.8c-1.1-2.5-2.4-4.6-3.9-6.4c1.1,1.6,2.3,3.5,3.6,5.8C134.4-29.2,134.5-29,134.6-28.8z"/>
		<path class="st3" d="M120.9-40.5c-4.5,0-8.5,2.9-11.6,7.7c-1.6,2.7-3,5.8-4.2,9.9c0,0,0,0.1,0,0.1c-0.5,2.1,3.8,26.1,5.4,28.1
			c1.6,1.9-0.7-21,2.4-22.4c3-1.4,4.1,21.9,5.9,22s-0.3-23.3,2.9-23c3.2,0.3,2.5,22.7,4.3,23s2.5-23.3,4.5-22.3
			c1.2,0.6,1.3,9.2,1.5,15.7c0.4-2.3,0.6-4.7,0.6-7.1c0-12.8-5.8-23.3-13.4-25.2c0.1,0,0.1,0,0.2,0c8.7,0,15.8,10.9,15.8,24.3
			c0,5.2-1.1,10.1-2.9,14.1c0.1,0.7,0.2,1.1,0.4,1.1c1.1,0.1,6.8-18.4,3.5-30.5c-0.4-1.3-0.9-2.5-1.4-3.7c-0.1-0.2-0.2-0.4-0.3-0.6
			c-1.3-2.2-2.5-4.1-3.6-5.8C127.9-38.5,124.5-40.5,120.9-40.5z"/>
		<path class="st2" d="M124.4,13.2c3.2-1.7,5.8-4.8,7.7-8.9c-0.2-1.3-0.3-3.5-0.4-6.1C130.6,4.6,127.9,10,124.4,13.2z"/>
		<path class="st2" d="M135.1-9.8c0-13.4-7.1-24.3-15.8-24.3c-0.1,0-0.1,0-0.2,0c7.6,1.8,13.4,12.4,13.4,25.1c0,2.5-0.2,4.9-0.6,7.1
			c0.1,2.6,0.2,4.8,0.4,6.1C134,0.3,135.1-4.5,135.1-9.8z"/>
	</g>
	<text transform="matrix(1 0 0 1 248.6558 42.3102)" class="st4 st5 st6 st7">ónde Comer?</text>
	<text transform="matrix(1 0 0 1 17.001 1.8005)" class="st4 st5 st6">¿</text>
	<g class="st1">
		<path class="st2" d="M156.7,300.7h3.7C159.2,300.7,158,300.6,156.7,300.7C156.7,300.6,156.7,300.6,156.7,300.7z"/>
		<path class="st2" d="M94.8,277.5v23.1h49.6c0-0.4,0.1-0.9,0.1-1.3C125.9,296.4,106.8,288.7,94.8,277.5z"/>
		<path class="st2" d="M114.5,127.6H94.8v23.1c5.5-5.1,12.4-9.4,20.1-13C114.8,133.9,114.6,130.4,114.5,127.6z"/>
		<path class="st2" d="M160.4,127.6h-32.7c-0.1,1.7-0.2,3.5-0.3,5.3C138.3,129.5,149.9,127.6,160.4,127.6z"/>
		<path class="st2" d="M160.4,127.6c-10.6,0-22.1,1.9-33,5.3c-1.2,21.8-3.1,57.8-3.3,67.1c-0.3,11,2.1,13.9,6.6,20.9
			c1.5,1.8,2.8,3.9,3.9,6.4c0.6,1.1,1.1,2.4,1.4,3.7c1.4,4.4,2.2,9.4,2.2,14.8c0,16.7-7.8,30.2-17.4,30.2s-17.4-13.5-17.4-30.2
			c0-4.5,0.6-8.7,1.6-12.5c0,0,0,0,0,0c0,0,0,0,0-0.1c1-3.8,2.4-7.1,4.2-9.9c3.8-6.6,7.9-10.4,8.2-17.7c0.3-7-1.4-44.7-2.5-67.8
			c-7.7,3.5-14.7,7.9-20.1,13v126.8c12,11.1,31.1,18.9,49.7,21.8c1.2-21.9,2.8-53.1,3-61.7c0.3-13.6-4.5-15.9-11.3-27.2
			c-6.8-11.3,1.9-52.5,3.1-52.4c1.2,0.1,0.1,40,2,41s2.9-40.7,4.7-40.5c1.8,0.3,0.8,40.8,4.1,41.1s1.3-41.2,3.1-41.1
			c1.8,0.1,2.6,41.5,5.6,40.1c3.1-1.4,1-42.5,2.6-40.5c1.6,1.9,5.8,40.8,5.2,47c-0.9,8.3-12,16.6-12.4,26.9
			c-0.3,7,1.4,45.4,2.5,68.4c1.2,0,2.4,0.1,3.7,0.1c47.8,0,86.5-38.8,86.5-86.5C246.9,166.3,208.2,127.6,160.4,127.6z M161.8,280.7
			c-1.2,0-2.4,0-3.7-0.1c35.8-1.9,64.2-31.5,64.2-67.8s-28.4-65.9-64.2-67.8c1.2-0.1,2.4-0.1,3.7-0.1c37.5,0,67.9,30.4,67.9,67.9
			C229.7,250.3,199.3,280.7,161.8,280.7z"/>
		<path class="st3" d="M161.8,144.9c-1.2,0-2.4,0-3.7,0.1c35.8,1.9,64.2,31.5,64.2,67.8s-28.4,65.9-64.2,67.8
			c1.2,0.1,2.4,0.1,3.7,0.1c37.5,0,67.9-30.4,67.9-67.9S199.3,144.9,161.8,144.9z"/>
		<path class="st3" d="M144.5,299.4c0,0.4-0.1,0.9-0.1,1.3h12.3c0,0,0,0,0-0.1C152.8,300.4,148.6,300,144.5,299.4z"/>
		<path class="st3" d="M154.2,232.1c0.4-10.3,11.5-18.6,12.4-26.9c0.6-6.2-3.6-45-5.2-47s0.5,39.1-2.6,40.5c-3,1.4-3.9-40-5.6-40.1
			s0.1,41.4-3.1,41.1c-3.2-0.3-2.3-40.8-4.1-41.1c-1.8-0.3-2.8,41.4-4.7,40.5s-0.8-40.9-2-41c-1.2-0.1-10,41-3.1,52.4
			c6.8,11.3,11.7,13.6,11.3,27.2c-0.2,8.6-1.8,39.8-3,61.7c4.1,0.6,8.2,1.1,12.2,1.2C155.7,277.5,154,239.2,154.2,232.1z"/>
		<path class="st3" d="M127.4,132.9c0.1-1.9,0.2-3.7,0.3-5.3h-13.2c0.1,2.8,0.3,6.3,0.5,10.1C118.9,135.9,123.1,134.3,127.4,132.9z"
			/>
		<path class="st3" d="M134.6,227.3c0.5,1.2,1,2.4,1.4,3.7C135.7,229.7,135.2,228.4,134.6,227.3z"/>
		<path class="st3" d="M105,233.2C105,233.2,105,233.3,105,233.2C105,233.2,105,233.2,105,233.2C105,233.2,105,233.2,105,233.2z"/>
		<path class="st3" d="M117.4,205.6c-0.3,7.3-4.4,11.1-8.2,17.7c3.1-4.8,7.1-7.7,11.6-7.7c3.7,0,7.1,2,9.9,5.3
			c-4.5-7-6.9-9.8-6.6-20.9c0.2-9.3,2.1-45.4,3.3-67.1c-4.3,1.4-8.5,3-12.5,4.8C116,160.9,117.7,198.6,117.4,205.6z"/>
		<path class="st3" d="M132.5,261.5c-0.2,0-0.3-0.4-0.4-1.1c-1.9,4.1-4.6,7.2-7.7,8.9c3.5-3.2,6.2-8.6,7.4-15
			c-0.2-6.5-0.3-15.1-1.5-15.7c-1.9-1-2.7,22.6-4.5,22.3c-1.8-0.3-1-22.6-4.3-23c-3.2-0.3-1.1,23.1-2.9,23c-1.8-0.1-2.8-23.4-5.9-22
			c-3.1,1.4-0.8,24.3-2.4,22.4c-1.6-1.9-5.9-26-5.4-28c-1,3.8-1.6,8-1.6,12.5c0,16.7,7.8,30.2,17.4,30.2s17.4-13.5,17.4-30.2
			c0-5.4-0.8-10.4-2.2-14.8C139.4,243.2,133.6,261.6,132.5,261.5z"/>
		<path class="st3" d="M105.1,233.2c1.2-4,2.7-7.2,4.2-9.9C107.5,226,106.1,229.4,105.1,233.2z"/>
		<path class="st3" d="M134.6,227.3c-1.1-2.5-2.4-4.6-3.9-6.4c1.1,1.6,2.3,3.5,3.6,5.8C134.4,226.9,134.5,227.1,134.6,227.3z"/>
		<path class="st3" d="M120.9,215.6c-4.5,0-8.5,2.9-11.6,7.7c-1.6,2.7-3,5.8-4.2,9.9c0,0,0,0.1,0,0.1c-0.5,2.1,3.8,26.1,5.4,28
			c1.6,2-0.7-21,2.4-22.4c3-1.4,4.1,21.9,5.9,22s-0.3-23.3,2.9-23c3.2,0.3,2.5,22.7,4.3,23s2.5-23.3,4.5-22.3
			c1.2,0.6,1.3,9.2,1.5,15.7c0.4-2.3,0.6-4.7,0.6-7.1c0-12.8-5.8-23.3-13.4-25.1c0.1,0,0.1,0,0.2,0c8.7,0,15.8,10.9,15.8,24.3
			c0,5.2-1.1,10.1-2.9,14.1c0.1,0.7,0.2,1.1,0.4,1.1c1.1,0.1,6.8-18.4,3.5-30.5c-0.4-1.3-0.9-2.5-1.4-3.7c-0.1-0.2-0.2-0.4-0.3-0.6
			c-1.3-2.2-2.5-4.1-3.6-5.8C127.9,217.6,124.5,215.6,120.9,215.6z"/>
		<path class="st2" d="M124.4,269.3c3.2-1.7,5.8-4.8,7.7-8.9c-0.2-1.3-0.3-3.5-0.4-6.1C130.6,260.7,127.9,266.1,124.4,269.3z"/>
		<path class="st2" d="M135.1,246.3c0-13.4-7.1-24.3-15.8-24.3c-0.1,0-0.1,0-0.2,0c7.6,1.9,13.4,12.4,13.4,25.1
			c0,2.5-0.2,4.9-0.6,7.1c0.1,2.6,0.2,4.8,0.4,6.1C134,256.4,135.1,251.6,135.1,246.3z"/>
	</g>
	<text transform="matrix(1 0 0 1 248.6558 298.4142)" class="st4 st5 st6 st7">ónde Comer?</text>
	<g class="st1">
		<path class="st2" d="M152.7,579.4h3.7C155.2,579.4,154,579.4,152.7,579.4C152.7,579.4,152.7,579.4,152.7,579.4z"/>
		<path class="st2" d="M90.8,556.3v23.1h49.6c0-0.4,0.1-0.9,0.1-1.3C121.9,575.2,102.8,567.4,90.8,556.3z"/>
		<path class="st2" d="M110.5,406.3H90.8v23.1c5.5-5.1,12.4-9.4,20.1-13C110.8,412.6,110.6,409.2,110.5,406.3z"/>
		<path class="st2" d="M156.4,406.3h-32.7c-0.1,1.7-0.2,3.5-0.3,5.3C134.3,408.2,145.9,406.3,156.4,406.3z"/>
		<path class="st2" d="M156.4,406.3c-10.6,0-22.1,1.9-33,5.3c-1.2,21.8-3.1,57.8-3.3,67.1c-0.3,11,2.1,13.9,6.6,20.8
			c1.5,1.8,2.8,3.9,3.9,6.4c0.6,1.1,1.1,2.4,1.4,3.7c1.4,4.4,2.2,9.4,2.2,14.8c0,16.7-7.8,30.2-17.4,30.2s-17.4-13.5-17.4-30.2
			c0-4.5,0.6-8.7,1.6-12.5c0,0,0,0,0,0c0,0,0,0,0-0.1c1-3.8,2.4-7.1,4.2-9.9c3.8-6.6,7.9-10.4,8.2-17.7c0.3-7-1.4-44.7-2.5-67.8
			c-7.7,3.5-14.7,7.9-20.1,13v126.8c12,11.1,31.1,18.9,49.7,21.8c1.2-21.9,2.8-53.1,3-61.7c0.3-13.6-4.5-15.9-11.3-27.2
			c-6.8-11.3,1.9-52.5,3.1-52.3c1.2,0.1,0.1,40,2,41c1.9,1,2.9-40.7,4.7-40.5c1.8,0.3,0.8,40.8,4.1,41.1s1.3-41.2,3.1-41.1
			c1.8,0.1,2.6,41.5,5.6,40.1c3.1-1.4,1-42.5,2.6-40.5c1.6,1.9,5.8,40.8,5.2,47c-0.9,8.3-12,16.6-12.4,26.9
			c-0.3,7,1.4,45.4,2.5,68.4c1.2,0,2.4,0.1,3.7,0.1c47.8,0,86.5-38.8,86.5-86.5C242.9,445.1,204.2,406.3,156.4,406.3z M157.8,559.5
			c-1.2,0-2.4,0-3.7-0.1c35.8-1.9,64.2-31.5,64.2-67.8s-28.4-65.9-64.2-67.8c1.2-0.1,2.4-0.1,3.7-0.1c37.5,0,67.9,30.4,67.9,67.9
			S195.3,559.5,157.8,559.5z"/>
		<path class="st3" d="M157.8,423.6c-1.2,0-2.4,0-3.7,0.1c35.8,1.9,64.2,31.5,64.2,67.8s-28.4,65.9-64.2,67.8
			c1.2,0.1,2.4,0.1,3.7,0.1c37.5,0,67.9-30.4,67.9-67.9S195.3,423.6,157.8,423.6z"/>
		<path class="st3" d="M140.5,578.1c0,0.4-0.1,0.9-0.1,1.3h12.3c0,0,0,0,0-0.1C148.8,579.2,144.6,578.8,140.5,578.1z"/>
		<path class="st3" d="M150.2,510.9c0.4-10.3,11.5-18.6,12.4-26.9c0.6-6.2-3.6-45-5.2-47s0.5,39.1-2.6,40.5c-3,1.4-3.9-40-5.6-40.1
			s0.1,41.4-3.1,41.1c-3.2-0.3-2.3-40.8-4.1-41.1c-1.8-0.3-2.8,41.4-4.7,40.5s-0.8-40.9-2-41c-1.2-0.1-10,41-3.1,52.3
			c6.8,11.3,11.7,13.6,11.3,27.2c-0.2,8.6-1.8,39.8-3,61.7c4.1,0.7,8.2,1.1,12.2,1.2C151.7,556.3,150,517.9,150.2,510.9z"/>
		<path class="st3" d="M123.4,411.7c0.1-1.9,0.2-3.7,0.3-5.3h-13.2c0.1,2.8,0.3,6.3,0.5,10.1C114.9,414.7,119.1,413,123.4,411.7z"/>
		<path class="st3" d="M130.6,506.1c0.5,1.2,1,2.4,1.4,3.7C131.7,508.4,131.2,507.2,130.6,506.1z"/>
		<path class="st3" d="M101,512C101,512,101,512,101,512C101,512,101,512,101,512C101,511.9,101,512,101,512z"/>
		<path class="st3" d="M113.4,484.3c-0.3,7.3-4.4,11.1-8.2,17.7c3.1-4.8,7.1-7.7,11.6-7.7c3.7,0,7.1,2,9.9,5.3
			c-4.5-7-6.9-9.8-6.6-20.8c0.2-9.3,2.1-45.4,3.3-67.1c-4.3,1.4-8.5,3-12.5,4.8C112,439.6,113.7,477.4,113.4,484.3z"/>
		<path class="st3" d="M128.5,540.3c-0.2,0-0.3-0.4-0.4-1.1c-1.9,4.1-4.6,7.2-7.7,8.9c3.5-3.2,6.2-8.6,7.4-15
			c-0.2-6.5-0.3-15.1-1.5-15.7c-1.9-1-2.7,22.6-4.5,22.3c-1.8-0.3-1-22.7-4.3-23c-3.2-0.3-1.1,23.1-2.9,23s-2.8-23.4-5.9-22
			c-3.1,1.4-0.8,24.3-2.4,22.4c-1.6-1.9-5.9-26-5.4-28c-1,3.8-1.6,8-1.6,12.5c0,16.7,7.8,30.2,17.4,30.2s17.4-13.5,17.4-30.2
			c0-5.4-0.8-10.4-2.2-14.8C135.4,521.9,129.6,540.4,128.5,540.3z"/>
		<path class="st3" d="M101.1,511.9c1.2-4,2.7-7.2,4.2-9.9C103.5,504.8,102.1,508.1,101.1,511.9z"/>
		<path class="st3" d="M130.6,506.1c-1.1-2.5-2.4-4.6-3.9-6.4c1.1,1.6,2.3,3.5,3.6,5.8C130.4,505.6,130.5,505.9,130.6,506.1z"/>
		<path class="st3" d="M116.9,494.4c-4.5,0-8.5,2.9-11.6,7.7c-1.6,2.7-3,5.8-4.2,9.9c0,0,0,0.1,0,0.1c-0.5,2.1,3.8,26.1,5.4,28
			c1.6,2-0.7-21,2.4-22.4c3-1.4,4.1,21.9,5.9,22s-0.3-23.3,2.9-23c3.2,0.3,2.5,22.7,4.3,23c1.8,0.3,2.5-23.3,4.5-22.3
			c1.2,0.6,1.3,9.2,1.5,15.7c0.4-2.3,0.6-4.7,0.6-7.1c0-12.8-5.8-23.3-13.4-25.2c0.1,0,0.1,0,0.2,0c8.7,0,15.8,10.9,15.8,24.3
			c0,5.2-1.1,10.1-2.9,14.1c0.1,0.7,0.2,1.1,0.4,1.1c1.1,0.1,6.8-18.3,3.5-30.5c-0.4-1.3-0.9-2.5-1.4-3.7c-0.1-0.2-0.2-0.4-0.3-0.7
			c-1.3-2.2-2.5-4.1-3.6-5.8C123.9,496.3,120.5,494.4,116.9,494.4z"/>
		<path class="st2" d="M120.4,548.1c3.2-1.7,5.8-4.8,7.7-8.9c-0.2-1.3-0.3-3.5-0.4-6.1C126.6,539.5,123.9,544.9,120.4,548.1z"/>
		<path class="st2" d="M131.1,525.1c0-13.4-7.1-24.3-15.8-24.3c-0.1,0-0.1,0-0.2,0c7.6,1.8,13.4,12.4,13.4,25.2
			c0,2.5-0.2,4.9-0.6,7.1c0.1,2.6,0.2,4.8,0.4,6.1C130,535.2,131.1,530.3,131.1,525.1z"/>
	</g>
	<text transform="matrix(1 0 0 1 326.6558 577.173)" class="st4 st5 st6 st7">dónde comer?</text>
	<text transform="matrix(1 0 0 1 264.6558 536.173)" class="st4 st5 st6">¿</text>
</g>
<g id="Layer_2" class="st0">
	<g class="st1">
		<path class="st2" d="M629.2,560.7h14.4c-4.8,0-9.6-0.1-14.4-0.3C629.1,560.5,629.2,560.6,629.2,560.7z"/>
		<path class="st2" d="M643.6-122.3h-129c-0.3,6.5-0.7,13.6-1.1,21.1c-4.6,85.9-12.1,228.2-13,265c-1,43.5,8.2,54.8,26.1,82.3
			c5.8,7,11,15.5,15.4,25.2c2.3,4.5,4.1,9.3,5.5,14.5c5.6,17.3,8.8,37.2,8.8,58.4c0,65.8-30.8,119.1-68.7,119.1
			c-38,0-68.7-53.3-68.7-119.1c0-17.6,2.2-34.4,6.2-49.4c0,0,0-0.1,0-0.1c0-0.1,0.1-0.2,0.1-0.3c4-14.9,9.7-28.2,16.6-39
			c15-26.1,31.1-41.1,32.2-69.9c1-27.5-5.5-176.4-9.7-267.7c-0.7-15.2-1.4-28.8-1.9-40h-77.5v91.2v500.5v91.2h195.9
			c0.1-1.7,0.2-3.4,0.3-5.1c4.6-86.4,11-209.7,11.8-243.6c1.3-53.7-17.9-62.7-44.8-107.4C521.2,159.8,555.6-2.6,560.5-2
			c4.9,0.6,0.3,158,8,161.9c7.7,3.8,11.5-160.8,18.5-159.7c7,1.1,3.2,160.9,16,162.2S608.2-0.4,615.3,0.2
			c7.1,0.5,10.3,163.8,22.3,158.4C649.7,153,641.4-9,647.8-1.3c6.4,7.7,23,161.1,20.4,185.4c-3.5,32.9-47.4,65.6-49,106.2
			c-1,27.7,5.6,179,9.9,270.1c4.9,0.2,9.7,0.3,14.4,0.3c188.6,0,341.5-152.9,341.5-341.5C985.1,30.6,832.2-122.3,643.6-122.3z
			 M649.2,482c-4.8,0-9.7-0.1-14.5-0.4C776,474,888.2,357.1,888.2,214C888.2,70.9,776-46,634.8-53.6c4.8-0.2,9.6-0.4,14.5-0.4
			c148,0,268,120,268,268C917.2,362,797.2,482,649.2,482z"/>
		<path class="st3" d="M649.2-54c-4.8,0-9.7,0.2-14.5,0.4C776-46,888.2,70.9,888.2,214c0,143.1-112.2,260-253.4,267.6
			c4.8,0.3,9.6,0.4,14.5,0.4c148,0,268-120,268-268C917.2,66,797.2-54,649.2-54z"/>
		<path class="st3" d="M581,555.5c-0.1,1.7-0.2,3.4-0.3,5.1h48.5c0-0.1,0-0.2,0-0.3C613.4,559.7,597.2,558.1,581,555.5z"/>
		<path class="st3" d="M619.3,290.3c1.5-40.6,45.5-73.3,49-106.2c2.6-24.3-14-177.7-20.4-185.4c-6.4-7.7,1.9,154.3-10.2,159.8
			c-12,5.4-15.2-157.9-22.3-158.4c-7.1-0.6,0.5,163.5-12.2,162.2c-12.8-1.3-8.9-161.1-16-162.2c-7.1-1.1-10.9,163.5-18.5,159.7
			S565.4-1.5,560.5-2c-4.9-0.5-39.3,161.9-12.4,206.6c26.9,44.7,46,53.7,44.8,107.4c-0.8,33.9-7.2,157.2-11.8,243.6
			c16.3,2.6,32.4,4.2,48.2,4.8C624.9,469.3,618.2,318,619.3,290.3z"/>
		<path class="st3" d="M541.9,271.3c2,4.6,3.9,9.4,5.5,14.5C546.1,280.6,544.2,275.7,541.9,271.3z"/>
		<path class="st3" d="M425.1,294.6c0,0,0,0.1,0,0.1c0-0.1,0.1-0.3,0.1-0.4C425.2,294.4,425.1,294.5,425.1,294.6z"/>
		<path class="st3" d="M500.5,163.7c0.9-36.8,8.4-179,13-265c0.4-7.5,0.8-14.6,1.1-21.1h-52.2c0.5,11.2,1.2,24.8,1.9,40
			C468.5,9,475,158,474,185.4c-1.1,28.8-17.2,43.8-32.2,69.9C454,236.5,470,225,487.6,225c14.5,0,27.9,7.8,38.9,21
			C508.7,218.6,499.4,207.2,500.5,163.7z"/>
		<path class="st3" d="M533.6,406.2c-0.6-0.1-1.1-1.6-1.5-4.3c-7.5,16.1-18.1,28.6-30.5,35.2c13.9-12.7,24.5-33.9,29.1-59.3
			c-0.8-25.6-1.2-59.5-5.9-61.9c-7.7-3.8-10.7,89.2-17.7,88.1c-7-1.1-4-89.4-16.8-90.6c-12.8-1.3-4.3,91.2-11.4,90.6
			c-7-0.5-11.1-92.2-23.1-86.8c-12.1,5.5-3,95.9-9.4,88.2c-6.4-7.6-23.2-102.5-21.2-110.7c-4,15.1-6.2,31.8-6.2,49.4
			c0,65.8,30.8,119.1,68.7,119.1s68.7-53.3,68.7-119.1c0-21.2-3.2-41.1-8.8-58.4C560.6,333.8,538,406.6,533.6,406.2z"/>
		<path class="st3" d="M425.2,294.3c4.6-16,10.5-28.4,16.6-39C434.8,266.1,429.2,279.4,425.2,294.3z"/>
		<path class="st3" d="M541.9,271.3c-4.3-9.7-9.5-18.2-15.4-25.2c4.2,6.5,8.9,13.8,14,22.7C541.1,269.5,541.5,270.4,541.9,271.3z"/>
		<path class="st3" d="M487.6,225c-17.6,0-33.6,11.5-45.8,30.3c-6.1,10.6-12,23-16.6,39c0,0.1-0.1,0.3-0.1,0.4
			c-2,8.1,14.9,103.1,21.2,110.7c6.4,7.7-2.8-82.7,9.4-88.2c12-5.4,16.1,86.3,23.1,86.8c7.1,0.5-1.4-91.9,11.4-90.6
			c12.8,1.3,9.8,89.6,16.8,90.6c7.1,1.1,10-91.9,17.7-88.1c4.8,2.4,5.2,36.3,5.9,61.9c1.6-8.9,2.5-18.4,2.5-28.2
			c0-50.3-22.9-92-52.8-99.2c0.3,0,0.6,0,0.9,0c34.4,0,62.4,43,62.4,96c0,20.7-4.3,39.9-11.5,55.6c0.4,2.6,0.9,4.2,1.5,4.3
			c4.3,0.5,27-72.4,13.9-120.4c-1.7-5.1-3.5-9.9-5.5-14.5c-0.4-0.9-0.9-1.7-1.3-2.5c-5.2-8.9-9.8-16.2-14-22.7
			C515.5,232.8,502.1,225,487.6,225z"/>
		<path class="st2" d="M501.6,437c12.4-6.6,23.1-19,30.5-35.2c-0.7-5-1.1-13.9-1.4-24.1C526.1,403.1,515.5,424.3,501.6,437z"/>
		<path class="st2" d="M543.7,346.3c0-53-27.9-96-62.4-96c-0.3,0-0.6,0-0.9,0c29.9,7.3,52.7,49,52.7,99.2c0,9.8-0.9,19.2-2.5,28.2
			c0.3,10.2,0.7,19.1,1.4,24.1C539.4,386.2,543.7,367,543.7,346.3z"/>
	</g>
</g>
<g id="Layer_3">
	<g>
		<path class="st2" d="M168.8,290.9h4.4C171.7,290.9,170.3,290.8,168.8,290.9C168.8,290.8,168.8,290.8,168.8,290.9z"/>
		<path class="st2" d="M173.2,84h-39.1c-0.1,2-0.2,4.1-0.3,6.4c-1.4,26-3.7,69.1-3.9,80.2c-0.3,13.2,2.5,16.6,7.9,24.9
			c1.8,2.1,3.3,4.7,4.7,7.6c0.7,1.4,1.2,2.8,1.7,4.4c1.7,5.2,2.7,11.3,2.7,17.7c0,19.9-9.3,36.1-20.8,36.1s-20.8-16.1-20.8-36.1
			c0-5.3,0.7-10.4,1.9-15c0,0,0,0,0,0c0,0,0-0.1,0-0.1c1.2-4.5,2.9-8.5,5-11.8c4.5-7.9,9.4-12.4,9.7-21.2c0.3-8.3-1.7-53.4-2.9-81.1
			c-0.2-4.6-0.4-8.7-0.6-12.1H94.8v27.6v151.6v27.6h59.3c0-0.5,0.1-1,0.1-1.6c1.4-26.2,3.3-63.5,3.6-73.8c0.4-16.3-5.4-19-13.6-32.5
			c-8.1-13.5,2.3-62.7,3.8-62.6c1.5,0.2,0.1,47.8,2.4,49c2.3,1.2,3.5-48.7,5.6-48.3c2.1,0.3,1,48.7,4.8,49.1
			c3.9,0.4,1.6-49.3,3.7-49.1c2.1,0.2,3.1,49.6,6.8,48c3.7-1.7,1.2-50.7,3.1-48.4s7,48.8,6.2,56.1c-1.1,10-14.4,19.9-14.8,32.2
			c-0.3,8.4,1.7,54.2,3,81.8c1.5,0.1,2.9,0.1,4.4,0.1c57.1,0,103.4-46.3,103.4-103.4C276.6,130.3,230.3,84,173.2,84z M174.9,267.1
			c-1.5,0-2.9,0-4.4-0.1c42.8-2.3,76.7-37.7,76.7-81s-34-78.7-76.7-81c1.4-0.1,2.9-0.1,4.4-0.1c44.8,0,81.2,36.3,81.2,81.2
			C256,230.7,219.7,267.1,174.9,267.1z"/>
		<path class="st3" d="M174.9,104.7c-1.5,0-2.9,0-4.4,0.1c42.8,2.3,76.7,37.7,76.7,81s-34,78.7-76.7,81c1.4,0.1,2.9,0.1,4.4,0.1
			c44.8,0,81.2-36.3,81.2-81.2C256,141.1,219.7,104.7,174.9,104.7z"/>
		<path class="st3" d="M154.2,289.3c0,0.5-0.1,1-0.1,1.6h14.7c0,0,0-0.1,0-0.1C164.1,290.6,159.1,290.1,154.2,289.3z"/>
		<path class="st3" d="M165.8,209c0.5-12.3,13.8-22.2,14.8-32.2c0.8-7.4-4.2-53.8-6.2-56.1c-1.9-2.3,0.6,46.7-3.1,48.4
			c-3.6,1.6-4.6-47.8-6.8-48c-2.1-0.2,0.2,49.5-3.7,49.1c-3.9-0.4-2.7-48.8-4.8-49.1c-2.1-0.3-3.3,49.5-5.6,48.3
			c-2.3-1.2-0.9-48.8-2.4-49s-11.9,49-3.8,62.6c8.1,13.5,13.9,16.3,13.6,32.5c-0.2,10.3-2.2,47.6-3.6,73.8c4.9,0.8,9.8,1.3,14.6,1.5
			C167.5,263.2,165.5,217.4,165.8,209z"/>
		<path class="st3" d="M142.4,203.2c0.6,1.4,1.2,2.9,1.7,4.4C143.7,206.1,143.1,204.6,142.4,203.2z"/>
		<path class="st3" d="M107,210.3C107,210.3,107,210.3,107,210.3C107,210.3,107,210.3,107,210.3C107,210.2,107,210.3,107,210.3z"/>
		<path class="st3" d="M129.9,170.7c0.3-11.1,2.5-54.2,3.9-80.2c0.1-2.3,0.2-4.4,0.3-6.4h-15.8c0.2,3.4,0.4,7.5,0.6,12.1
			c1.3,27.7,3.3,72.8,2.9,81.1c-0.3,8.7-5.2,13.3-9.7,21.2c3.7-5.7,8.5-9.2,13.9-9.2c4.4,0,8.4,2.4,11.8,6.4
			C132.3,187.3,129.5,183.8,129.9,170.7z"/>
		<path class="st3" d="M139.9,244.1c-0.2,0-0.3-0.5-0.5-1.3c-2.3,4.9-5.5,8.7-9.2,10.6c4.2-3.9,7.4-10.3,8.8-18
			c-0.2-7.7-0.4-18-1.8-18.7c-2.3-1.2-3.2,27-5.4,26.7c-2.1-0.3-1.2-27.1-5.1-27.5c-3.9-0.4-1.3,27.6-3.4,27.5
			c-2.1-0.2-3.4-27.9-7-26.3c-3.7,1.7-0.9,29-2.8,26.7c-1.9-2.3-7-31.1-6.4-33.5c-1.2,4.6-1.9,9.6-1.9,15c0,19.9,9.3,36.1,20.8,36.1
			s20.8-16.1,20.8-36.1c0-6.4-1-12.5-2.7-17.7C148.1,222.2,141.2,244.2,139.9,244.1z"/>
		<path class="st3" d="M107.1,210.2c1.4-4.8,3.2-8.6,5-11.8C110,201.7,108.2,205.7,107.1,210.2z"/>
		<path class="st3" d="M142.4,203.2c-1.3-2.9-2.9-5.5-4.7-7.6c1.3,2,2.7,4.2,4.2,6.9C142.1,202.7,142.3,203,142.4,203.2z"/>
		<path class="st3" d="M125.9,189.2c-5.3,0-10.2,3.5-13.9,9.2c-1.8,3.2-3.6,7-5,11.8c0,0,0,0.1,0,0.1c-0.6,2.5,4.5,31.2,6.4,33.5
			c1.9,2.3-0.8-25,2.8-26.7c3.6-1.6,4.9,26.1,7,26.3s-0.4-27.8,3.4-27.5c3.9,0.4,3,27.1,5.1,27.5c2.1,0.3,3-27.8,5.4-26.7
			c1.4,0.7,1.6,11,1.8,18.7c0.5-2.7,0.8-5.6,0.8-8.5c0-15.2-6.9-27.9-16-30.1c0.1,0,0.2,0,0.3,0c10.4,0,18.9,13,18.9,29.1
			c0,6.3-1.3,12.1-3.5,16.8c0.1,0.8,0.3,1.3,0.5,1.3c1.3,0.1,8.2-21.9,4.2-36.5c-0.5-1.5-1.1-3-1.7-4.4c-0.1-0.3-0.3-0.5-0.4-0.8
			c-1.6-2.7-3-4.9-4.2-6.9C134.4,191.6,130.3,189.2,125.9,189.2z"/>
		<path class="st2" d="M130.2,253.4c3.8-2,7-5.8,9.2-10.6c-0.2-1.5-0.3-4.2-0.4-7.3C137.6,243.2,134.4,249.6,130.2,253.4z"/>
		<path class="st2" d="M142.9,225.9c0-16-8.5-29.1-18.9-29.1c-0.1,0-0.2,0-0.3,0c9,2.2,16,14.8,16,30.1c0,3-0.3,5.8-0.8,8.5
			c0.1,3.1,0.2,5.8,0.4,7.3C141.6,238,142.9,232.2,142.9,225.9z"/>
	</g>
	<g>
		<path class="st2" d="M379.6,226.6c0,51.1-28.3,63.6-46.9,63.6c-29.3,0-46.9-23-46.9-62.9c0-44.1,23-63.6,47.4-63.6
			C362.1,163.7,379.6,188,379.6,226.6z M318.5,226.6c0,21,3.3,38.6,15,38.6c10.5,0,13.3-20.5,13.3-38.6c0-16.8-2.8-38.1-13.8-38.1
			C321,188.5,318.5,209.8,318.5,226.6z M368.1,115.5l-25.3,35.1h-20.5l17.3-35.1H368.1z"/>
		<path class="st2" d="M388.2,202.5c0-13.5-0.8-25.3-1-36.8h28.3l1.5,14h0.5c6.5-9.8,17-16,29.8-16c23.3,0,32.6,18.5,32.6,45.9v78.7
			H447v-76.7c0-10.3-2.5-20.3-12-20.3c-5.5,0-10,3.8-12.3,11c-1,2.5-1.8,6.5-1.8,11.3v74.7h-32.8L388.2,202.5L388.2,202.5z"/>
		<path class="st2" d="M581.9,114.8v137.1c0,11.8,0.5,25.1,1,36.3h-28.3l-1.8-13.8h-0.5c-4.5,8.5-14.3,15.8-25.6,15.8
			c-26.1,0-38.1-28.8-38.1-63.1c0-42.6,18.5-63.4,39.3-63.4c10.8,0,17.5,5.3,20.5,12.3h0.5v-61.1L581.9,114.8L581.9,114.8z
			 M549,212.8c0-2.3,0-4.8-0.2-7.3c-1.2-7.5-5.3-14.3-11.8-14.3c-11.5,0-15.8,16.8-15.8,36.6c0,23.3,6.3,35.6,15.5,35.6
			c4,0,8.8-2.2,11.3-10.8c0.8-1.8,1-4.5,1-7.5V212.8z"/>
		<path class="st2" d="M622.2,238.6c0.5,19,11.5,26.1,26.1,26.1c9.3,0,17.5-2,23.3-4l4.5,23.5c-8.5,3.3-21.3,5.5-33.8,5.5
			c-33.3,0-51.6-22-51.6-60.4c0-41.1,21.3-65.6,49.1-65.6c26.3,0,41.6,20.8,41.6,57.9c0,8.8-0.2,13.5-1,17L622.2,238.6L622.2,238.6z
			 M651.5,215.5c0-15.8-4-28.1-13.8-28.1c-10.8,0-15,15.8-15.3,28.1H651.5z"/>
		<path class="st2" d="M803.6,285.7c-4.8,2.2-14,4-25.6,4c-43.1,0-63.7-35.6-63.7-83.4c0-63.6,35.3-88.5,68.2-88.5
			c11.5,0,19.5,2.3,22.8,4.5l-5.5,27.6c-3.8-1.8-8-3.3-15.3-3.3c-18.5,0-35.3,16-35.3,57.9c0,40.3,15.3,56.1,35.3,56.1
			c5.5,0,11.8-1.2,15.8-2.5L803.6,285.7z"/>
		<path class="st2" d="M896.8,226.6c0,51.1-28.3,63.6-46.9,63.6c-29.3,0-46.9-23-46.9-62.9c0-44.1,23-63.6,47.4-63.6
			C879.3,163.7,896.8,188,896.8,226.6z M835.7,226.6c0,21,3.3,38.6,15,38.6c10.5,0,13.3-20.5,13.3-38.6c0-16.8-2.8-38.1-13.8-38.1
			C838.2,188.5,835.7,209.8,835.7,226.6z"/>
		<path class="st2" d="M905.4,202.5c0-13.5-0.8-25.3-1-36.8h28.6l1.5,14.3h0.5c6.3-9.3,16.5-16.3,29.3-16.3
			c13.8,0,22.5,6.3,26.8,16.5h0.5c3-4.8,7.5-9.3,12.3-12.3c5-2.8,11-4.3,17.3-4.3c21.8,0,31.6,17.3,31.6,46.9v77.7h-32.6V216
			c0-14-1.5-25.3-11.5-25.3c-5.8,0-10,4-12.3,11.3c-0.5,1.8-1,5.3-1,8.5v77.7h-32.6v-76.9c0-8.8-1-20.5-11.3-20.5
			c-5,0-10,3.8-12.3,11c-0.8,2.3-1.2,5.8-1.2,9.3v77.2h-32.6L905.4,202.5L905.4,202.5z"/>
		<path class="st2" d="M1093,238.6c0.5,19,11.5,26.1,26.1,26.1c9.3,0,17.5-2,23.3-4l4.5,23.5c-8.5,3.3-21.3,5.5-33.8,5.5
			c-33.3,0-51.6-22-51.6-60.4c0-41.1,21.3-65.6,49.1-65.6c26.3,0,41.6,20.8,41.6,57.9c0,8.8-0.2,13.5-1,17L1093,238.6L1093,238.6z
			 M1122.4,215.5c0-15.8-4-28.1-13.8-28.1c-10.8,0-15,15.8-15.3,28.1H1122.4z"/>
		<path class="st2" d="M1160.4,202.5c0-12.3-0.5-25.6-1-36.8h28.6l1.8,17.8h0.8c5.5-13,15.3-19.8,24.3-19.8c3.3,0,5,0,7,0.5v32.6
			c-2-0.5-4.3-0.5-7-0.5c-7,0-16.3,4.8-20.1,17.5c-0.8,2.8-1.2,7-1.2,12.3v62.1h-33.1V202.5z"/>
		<path class="st2" d="M1234.9,235.3l-0.5-4.5c-1.8-14.8,4-28.1,13.3-42.6c7.3-10.8,10.8-18.5,10.8-28.1c0-9.3-6.3-15.5-16.5-15.5
			c-5.5,0-11.3,1-16,4.5l-5.5-25.3c5.3-3.5,17-7.5,29.3-7.5c33.1,0,42.3,21.8,42.3,38.6c0,17.3-9.8,31.6-18.5,44.4
			c-6.8,10.3-11,19-10.8,30.8v5.3L1234.9,235.3L1234.9,235.3z M1248.9,290.2c-10.5,0-18.5-8.5-18.5-20c0-12.3,8.8-20.3,18.5-20.5
			c10.8,0,18.8,8.3,18.8,20.5c0,11.5-7,20-18.5,20H1248.9z"/>
	</g>
</g>
<g id="Layer_4" class="st0">
	<g class="st1">
		<path class="st2" d="M168.8,290.9h4.4C171.7,290.9,170.3,290.8,168.8,290.9C168.8,290.8,168.8,290.8,168.8,290.9z"/>
		<path class="st2" d="M173.2,84h-39.1c-0.1,2-0.2,4.1-0.3,6.4c-1.4,26-3.7,69.1-3.9,80.2c-0.3,13.2,2.5,16.6,7.9,24.9
			c1.8,2.1,3.3,4.7,4.7,7.6c0.7,1.4,1.2,2.8,1.7,4.4c1.7,5.2,2.7,11.3,2.7,17.7c0,19.9-9.3,36.1-20.8,36.1s-20.8-16.1-20.8-36.1
			c0-5.3,0.7-10.4,1.9-15c0,0,0,0,0,0c0,0,0-0.1,0-0.1c1.2-4.5,2.9-8.5,5-11.8c4.5-7.9,9.4-12.4,9.7-21.2c0.3-8.3-1.7-53.4-2.9-81.1
			c-0.2-4.6-0.4-8.7-0.6-12.1H94.8v27.6v151.6v27.6h59.3c0-0.5,0.1-1,0.1-1.6c1.4-26.2,3.3-63.5,3.6-73.8c0.4-16.3-5.4-19-13.6-32.5
			c-8.1-13.5,2.3-62.7,3.8-62.6c1.5,0.2,0.1,47.8,2.4,49c2.3,1.2,3.5-48.7,5.6-48.3c2.1,0.3,1,48.7,4.8,49.1
			c3.9,0.4,1.6-49.3,3.7-49.1c2.1,0.2,3.1,49.6,6.8,48c3.7-1.7,1.2-50.7,3.1-48.4s7,48.8,6.2,56.1c-1.1,10-14.4,19.9-14.8,32.2
			c-0.3,8.4,1.7,54.2,3,81.8c1.5,0.1,2.9,0.1,4.4,0.1c57.1,0,103.4-46.3,103.4-103.4C276.6,130.3,230.3,84,173.2,84z M174.9,267.1
			c-1.5,0-2.9,0-4.4-0.1c42.8-2.3,76.7-37.7,76.7-81s-34-78.7-76.7-81c1.4-0.1,2.9-0.1,4.4-0.1c44.8,0,81.2,36.3,81.2,81.2
			C256,230.7,219.7,267.1,174.9,267.1z"/>
		<path class="st3" d="M174.9,104.7c-1.5,0-2.9,0-4.4,0.1c42.8,2.3,76.7,37.7,76.7,81s-34,78.7-76.7,81c1.4,0.1,2.9,0.1,4.4,0.1
			c44.8,0,81.2-36.3,81.2-81.2C256,141.1,219.7,104.7,174.9,104.7z"/>
		<path class="st3" d="M154.2,289.3c0,0.5-0.1,1-0.1,1.6h14.7c0,0,0-0.1,0-0.1C164.1,290.6,159.1,290.1,154.2,289.3z"/>
		<path class="st3" d="M165.8,209c0.5-12.3,13.8-22.2,14.8-32.2c0.8-7.4-4.2-53.8-6.2-56.1c-1.9-2.3,0.6,46.7-3.1,48.4
			c-3.6,1.6-4.6-47.8-6.8-48c-2.1-0.2,0.2,49.5-3.7,49.1c-3.9-0.4-2.7-48.8-4.8-49.1c-2.1-0.3-3.3,49.5-5.6,48.3
			c-2.3-1.2-0.9-48.8-2.4-49s-11.9,49-3.8,62.6c8.1,13.5,13.9,16.3,13.6,32.5c-0.2,10.3-2.2,47.6-3.6,73.8c4.9,0.8,9.8,1.3,14.6,1.5
			C167.5,263.2,165.5,217.4,165.8,209z"/>
		<path class="st3" d="M142.4,203.2c0.6,1.4,1.2,2.9,1.7,4.4C143.7,206.1,143.1,204.6,142.4,203.2z"/>
		<path class="st3" d="M107,210.3C107,210.3,107,210.3,107,210.3C107,210.3,107,210.3,107,210.3C107,210.2,107,210.3,107,210.3z"/>
		<path class="st3" d="M129.9,170.7c0.3-11.1,2.5-54.2,3.9-80.2c0.1-2.3,0.2-4.4,0.3-6.4h-15.8c0.2,3.4,0.4,7.5,0.6,12.1
			c1.3,27.7,3.3,72.8,2.9,81.1c-0.3,8.7-5.2,13.3-9.7,21.2c3.7-5.7,8.5-9.2,13.9-9.2c4.4,0,8.4,2.4,11.8,6.4
			C132.3,187.3,129.5,183.8,129.9,170.7z"/>
		<path class="st3" d="M139.9,244.1c-0.2,0-0.3-0.5-0.5-1.3c-2.3,4.9-5.5,8.7-9.2,10.6c4.2-3.9,7.4-10.3,8.8-18
			c-0.2-7.7-0.4-18-1.8-18.7c-2.3-1.2-3.2,27-5.4,26.7c-2.1-0.3-1.2-27.1-5.1-27.5c-3.9-0.4-1.3,27.6-3.4,27.5
			c-2.1-0.2-3.4-27.9-7-26.3c-3.7,1.7-0.9,29-2.8,26.7c-1.9-2.3-7-31.1-6.4-33.5c-1.2,4.6-1.9,9.6-1.9,15c0,19.9,9.3,36.1,20.8,36.1
			s20.8-16.1,20.8-36.1c0-6.4-1-12.5-2.7-17.7C148.1,222.2,141.2,244.2,139.9,244.1z"/>
		<path class="st3" d="M107.1,210.2c1.4-4.8,3.2-8.6,5-11.8C110,201.7,108.2,205.7,107.1,210.2z"/>
		<path class="st3" d="M142.4,203.2c-1.3-2.9-2.9-5.5-4.7-7.6c1.3,2,2.7,4.2,4.2,6.9C142.1,202.7,142.3,203,142.4,203.2z"/>
		<path class="st3" d="M125.9,189.2c-5.3,0-10.2,3.5-13.9,9.2c-1.8,3.2-3.6,7-5,11.8c0,0,0,0.1,0,0.1c-0.6,2.5,4.5,31.2,6.4,33.5
			c1.9,2.3-0.8-25,2.8-26.7c3.6-1.6,4.9,26.1,7,26.3s-0.4-27.8,3.4-27.5c3.9,0.4,3,27.1,5.1,27.5c2.1,0.3,3-27.8,5.4-26.7
			c1.4,0.7,1.6,11,1.8,18.7c0.5-2.7,0.8-5.6,0.8-8.5c0-15.2-6.9-27.9-16-30.1c0.1,0,0.2,0,0.3,0c10.4,0,18.9,13,18.9,29.1
			c0,6.3-1.3,12.1-3.5,16.8c0.1,0.8,0.3,1.3,0.5,1.3c1.3,0.1,8.2-21.9,4.2-36.5c-0.5-1.5-1.1-3-1.7-4.4c-0.1-0.3-0.3-0.5-0.4-0.8
			c-1.6-2.7-3-4.9-4.2-6.9C134.4,191.6,130.3,189.2,125.9,189.2z"/>
		<path class="st2" d="M130.2,253.4c3.8-2,7-5.8,9.2-10.6c-0.2-1.5-0.3-4.2-0.4-7.3C137.6,243.2,134.4,249.6,130.2,253.4z"/>
		<path class="st2" d="M142.9,225.9c0-16-8.5-29.1-18.9-29.1c-0.1,0-0.2,0-0.3,0c9,2.2,16,14.8,16,30.1c0,3-0.3,5.8-0.8,8.5
			c0.1,3.1,0.2,5.8,0.4,7.3C141.6,238,142.9,232.2,142.9,225.9z"/>
	</g>
	<text transform="matrix(1 0 0 1 278.6582 288.1906)" class="st4 st5 st8 st9">ónde Comer?</text>
</g>
</svg>
