<?xml version="1.0" encoding="utf-8"?>
<!-- Generator: Adobe Illustrator 25.1.0, SVG Export Plug-In . SVG Version: 6.00 Build 0)  -->
<svg version="1.1" id="Capa_1" xmlns="http://www.w3.org/2000/svg" xmlns:xlink="http://www.w3.org/1999/xlink" x="0px" y="0px"
	 viewBox="0 0 831 768" style="enable-background:new 0 0 831 768;" xml:space="preserve">
<style type="text/css">
	.st0{display:none;}
	.st1{display:inline;}
	.st2{fill:#F15A29;}
	.st3{fill:#FFFFFF;}
	.st4{display:inline;fill:#F15A29;}
	.st5{font-family:'ArialMT';}
	.st6{font-size:209.6878px;}
	.st7{letter-spacing:-7;}
	.st8{font-size:250.5831px;}
	.st9{letter-spacing:-9;}
</style>
<g id="Layer_1" class="st0">
	<g class="st1">
		<path class="st2" d="M-108.3,203.9h3.7C-105.8,203.9-107,203.8-108.3,203.9C-108.3,203.8-108.3,203.9-108.3,203.9z"/>
		<path class="st2" d="M-170.2,180.8v23.1h49.6c0-0.4,0.1-0.9,0.1-1.3C-139.1,199.6-158.2,191.9-170.2,180.8z"/>
		<path class="st2" d="M-150.5,30.8h-19.6v23.1c5.5-5.1,12.4-9.4,20.1-13C-150.2,37.1-150.4,33.6-150.5,30.8z"/>
		<path class="st2" d="M-104.6,30.8h-32.7c-0.1,1.7-0.2,3.5-0.3,5.3C-126.7,32.7-115.1,30.8-104.6,30.8z"/>
		<path class="st2" d="M-104.6,30.8c-10.6,0-22.1,1.9-33,5.3c-1.2,21.8-3.1,57.8-3.3,67.1c-0.3,11,2.1,13.9,6.6,20.8
			c1.5,1.8,2.8,3.9,3.9,6.4c0.6,1.1,1.1,2.4,1.4,3.7c1.4,4.4,2.2,9.4,2.2,14.8c0,16.7-7.8,30.2-17.4,30.2
			c-9.6,0-17.4-13.5-17.4-30.2c0-4.5,0.6-8.7,1.6-12.5c0,0,0,0,0,0c0,0,0-0.1,0-0.1c1-3.8,2.5-7.1,4.2-9.9
			c3.8-6.6,7.9-10.4,8.2-17.7c0.3-7-1.4-44.7-2.5-67.8c-7.7,3.5-14.7,7.9-20.1,13v126.8c12,11.1,31.1,18.9,49.7,21.8
			c1.2-21.9,2.8-53.1,3-61.7c0.3-13.6-4.5-15.9-11.3-27.2c-6.8-11.3,1.9-52.5,3.1-52.3c1.2,0.1,0.1,40,2,41s2.9-40.7,4.7-40.5
			c1.8,0.3,0.8,40.8,4.1,41.1s1.3-41.2,3.1-41.1c1.8,0.1,2.6,41.5,5.6,40.1c3.1-1.4,1-42.5,2.6-40.5c1.6,1.9,5.8,40.8,5.2,47
			c-0.9,8.3-12,16.6-12.4,26.9c-0.3,7,1.4,45.4,2.5,68.4c1.2,0.1,2.4,0.1,3.7,0.1c47.8,0,86.5-38.8,86.5-86.5
			C-18.1,69.5-56.8,30.8-104.6,30.8z M-103.2,183.9c-1.2,0-2.4,0-3.7-0.1c35.8-1.9,64.2-31.6,64.2-67.8s-28.4-65.9-64.2-67.8
			c1.2-0.1,2.4-0.1,3.7-0.1c37.5,0,67.9,30.4,67.9,67.9S-65.7,183.9-103.2,183.9z"/>
		<path class="st3" d="M-103.2,48.1c-1.2,0-2.4,0-3.7,0.1c35.8,1.9,64.2,31.6,64.2,67.8s-28.4,65.9-64.2,67.8
			c1.2,0.1,2.4,0.1,3.7,0.1c37.5,0,67.9-30.4,67.9-67.9S-65.7,48.1-103.2,48.1z"/>
		<path class="st3" d="M-120.5,202.6c0,0.4-0.1,0.9-0.1,1.3h12.3c0,0,0-0.1,0-0.1C-112.2,203.6-116.4,203.2-120.5,202.6z"/>
		<path class="st3" d="M-110.8,135.4c0.4-10.3,11.5-18.6,12.4-26.9c0.6-6.2-3.6-45-5.2-47s0.5,39.1-2.6,40.5c-3,1.4-3.9-40-5.6-40.1
			s0.1,41.4-3.1,41.1c-3.2-0.3-2.3-40.8-4.1-41.1c-1.8-0.3-2.8,41.4-4.7,40.5s-0.8-40.9-2-41c-1.2-0.1-10,41-3.1,52.4
			c6.8,11.3,11.7,13.6,11.3,27.2c-0.2,8.6-1.8,39.8-3,61.7c4.1,0.6,8.2,1.1,12.2,1.2C-109.3,180.7-111,142.4-110.8,135.4z"/>
		<path class="st3" d="M-137.6,36.1c0.1-1.9,0.2-3.7,0.3-5.4h-13.2c0.1,2.8,0.3,6.3,0.5,10.1C-146.1,39.1-141.9,37.5-137.6,36.1z"/>
		<path class="st3" d="M-130.4,130.5c0.5,1.2,1,2.4,1.4,3.7C-129.3,132.9-129.8,131.7-130.4,130.5z"/>
		<path class="st3" d="M-160,136.4C-160,136.5-160,136.5-160,136.4C-160,136.4-160,136.4-160,136.4C-160,136.4-160,136.4-160,136.4z
			"/>
		<path class="st3" d="M-147.6,108.8c-0.3,7.3-4.4,11.1-8.2,17.7c3.1-4.8,7.1-7.7,11.6-7.7c3.7,0,7.1,2,9.9,5.3
			c-4.5-7-6.9-9.8-6.6-20.8c0.2-9.3,2.1-45.4,3.3-67.1c-4.3,1.4-8.5,3-12.5,4.8C-149,64.1-147.3,101.8-147.6,108.8z"/>
		<path class="st3" d="M-132.5,164.7c-0.2,0-0.3-0.4-0.4-1.1c-1.9,4.1-4.6,7.2-7.7,8.9c3.5-3.2,6.2-8.6,7.4-15
			c-0.2-6.5-0.3-15.1-1.5-15.7c-1.9-1-2.7,22.6-4.5,22.3c-1.8-0.3-1-22.6-4.3-23c-3.2-0.3-1.1,23.1-2.9,23s-2.8-23.4-5.9-22
			c-3.1,1.4-0.8,24.3-2.4,22.4c-1.6-1.9-5.9-26-5.4-28.1c-1,3.8-1.6,8.1-1.6,12.5c0,16.7,7.8,30.2,17.4,30.2s17.4-13.5,17.4-30.2
			c0-5.4-0.8-10.4-2.2-14.8C-125.6,146.4-131.4,164.8-132.5,164.7z"/>
		<path class="st3" d="M-159.9,136.4c1.2-4,2.7-7.2,4.2-9.9C-157.5,129.2-158.9,132.6-159.9,136.4z"/>
		<path class="st3" d="M-130.4,130.5c-1.1-2.5-2.4-4.6-3.9-6.4c1.1,1.6,2.3,3.5,3.6,5.8C-130.6,130.1-130.5,130.3-130.4,130.5z"/>
		<path class="st3" d="M-144.1,118.8c-4.5,0-8.5,2.9-11.6,7.7c-1.6,2.7-3,5.8-4.2,9.9c0,0,0,0.1,0,0.1c-0.5,2.1,3.8,26.1,5.4,28.1
			c1.6,1.9-0.7-21,2.4-22.4c3-1.4,4.1,21.9,5.9,22s-0.3-23.3,2.9-23c3.2,0.3,2.5,22.7,4.3,23c1.8,0.3,2.5-23.3,4.5-22.3
			c1.2,0.6,1.3,9.2,1.5,15.7c0.4-2.3,0.6-4.7,0.6-7.1c0-12.8-5.8-23.3-13.4-25.2c0.1,0,0.1,0,0.2,0c8.7,0,15.8,10.9,15.8,24.3
			c0,5.2-1.1,10.1-2.9,14.1c0.1,0.7,0.2,1.1,0.4,1.1c1.1,0.1,6.8-18.4,3.5-30.5c-0.4-1.3-0.9-2.5-1.4-3.7c-0.1-0.2-0.2-0.4-0.3-0.6
			c-1.3-2.2-2.5-4.1-3.6-5.8C-137.1,120.8-140.5,118.8-144.1,118.8z"/>
		<path class="st2" d="M-140.6,172.5c3.1-1.7,5.8-4.8,7.7-8.9c-0.2-1.3-0.3-3.5-0.4-6.1C-134.4,163.9-137.1,169.3-140.6,172.5z"/>
		<path class="st2" d="M-129.9,149.5c0-13.4-7.1-24.3-15.8-24.3c-0.1,0-0.1,0-0.2,0c7.6,1.8,13.4,12.4,13.4,25.1
			c0,2.5-0.2,4.9-0.6,7.1c0.1,2.6,0.2,4.8,0.4,6.1C-131,159.6-129.9,154.8-129.9,149.5z"/>
	</g>
	<text transform="matrix(1 0 0 1 -16.3442 201.6294)" class="st4 st5 st6 st7">ónde Comer?</text>
	<text transform="matrix(1 0 0 1 -247.999 161.1196)" class="st4 st5 st6">¿</text>
	<g class="st1">
		<path class="st2" d="M-108.3,460h3.7C-105.8,460-107,460-108.3,460C-108.3,459.9-108.3,460-108.3,460z"/>
		<path class="st2" d="M-170.2,436.9V460h49.6c0-0.4,0.1-0.9,0.1-1.3C-139.1,455.7-158.2,448-170.2,436.9z"/>
		<path class="st2" d="M-150.5,286.9h-19.6V310c5.5-5.1,12.4-9.4,20.1-13C-150.2,293.2-150.4,289.7-150.5,286.9z"/>
		<path class="st2" d="M-104.6,286.9h-32.7c-0.1,1.7-0.2,3.5-0.3,5.4C-126.7,288.8-115.1,286.9-104.6,286.9z"/>
		<path class="st2" d="M-104.6,286.9c-10.6,0-22.1,1.9-33,5.4c-1.2,21.8-3.1,57.8-3.3,67.1c-0.3,11,2.1,13.9,6.6,20.9
			c1.5,1.8,2.8,3.9,3.9,6.4c0.6,1.1,1.1,2.4,1.4,3.7c1.4,4.4,2.2,9.4,2.2,14.8c0,16.7-7.8,30.2-17.4,30.2
			c-9.6,0-17.4-13.5-17.4-30.2c0-4.5,0.6-8.7,1.6-12.5c0,0,0,0,0,0c0,0,0,0,0-0.1c1-3.8,2.5-7.1,4.2-9.9c3.8-6.6,7.9-10.4,8.2-17.7
			c0.3-7-1.4-44.7-2.5-67.8c-7.7,3.5-14.7,7.9-20.1,13v126.8c12,11.1,31.1,18.9,49.7,21.8c1.2-21.9,2.8-53.1,3-61.7
			c0.3-13.6-4.5-15.9-11.3-27.2c-6.8-11.3,1.9-52.5,3.1-52.4c1.2,0.1,0.1,40,2,41s2.9-40.7,4.7-40.5c1.8,0.3,0.8,40.8,4.1,41.1
			s1.3-41.2,3.1-41.1c1.8,0.1,2.6,41.5,5.6,40.1c3.1-1.4,1-42.5,2.6-40.5c1.6,1.9,5.8,40.8,5.2,47c-0.9,8.3-12,16.6-12.4,26.9
			c-0.3,7,1.4,45.4,2.5,68.4c1.2,0,2.4,0.1,3.7,0.1c47.8,0,86.5-38.8,86.5-86.5C-18.1,325.6-56.8,286.9-104.6,286.9z M-103.2,440
			c-1.2,0-2.4,0-3.7-0.1c35.8-1.9,64.2-31.5,64.2-67.8s-28.4-65.9-64.2-67.8c1.2-0.1,2.4-0.1,3.7-0.1c37.5,0,67.9,30.4,67.9,67.9
			C-35.3,409.6-65.7,440-103.2,440z"/>
		<path class="st3" d="M-103.2,304.2c-1.2,0-2.4,0-3.7,0.1c35.8,1.9,64.2,31.5,64.2,67.8S-71.1,438-106.8,440
			c1.2,0.1,2.4,0.1,3.7,0.1c37.5,0,67.9-30.4,67.9-67.9S-65.7,304.2-103.2,304.2z"/>
		<path class="st3" d="M-120.5,458.7c0,0.4-0.1,0.9-0.1,1.3h12.3c0,0,0,0,0-0.1C-112.2,459.7-116.4,459.3-120.5,458.7z"/>
		<path class="st3" d="M-110.8,391.5c0.4-10.3,11.5-18.6,12.4-26.9c0.6-6.2-3.6-45-5.2-47s0.5,39.1-2.6,40.5c-3,1.4-3.9-40-5.6-40.1
			s0.1,41.4-3.1,41.1c-3.2-0.3-2.3-40.8-4.1-41.1c-1.8-0.3-2.8,41.4-4.7,40.5s-0.8-40.9-2-41c-1.2-0.1-10,41-3.1,52.4
			c6.8,11.3,11.7,13.6,11.3,27.2c-0.2,8.6-1.8,39.8-3,61.7c4.1,0.6,8.2,1.1,12.2,1.2C-109.3,436.8-111,398.5-110.8,391.5z"/>
		<path class="st3" d="M-137.6,292.2c0.1-1.9,0.2-3.7,0.3-5.4h-13.2c0.1,2.8,0.3,6.3,0.5,10.1C-146.1,295.2-141.9,293.6-137.6,292.2
			z"/>
		<path class="st3" d="M-130.4,386.6c0.5,1.2,1,2.4,1.4,3.7C-129.3,389-129.8,387.8-130.4,386.6z"/>
		<path class="st3" d="M-160,392.5C-160,392.6-160,392.6-160,392.5C-160,392.5-160,392.5-160,392.5C-160,392.5-160,392.5-160,392.5z
			"/>
		<path class="st3" d="M-147.6,364.9c-0.3,7.3-4.4,11.1-8.2,17.7c3.1-4.8,7.1-7.7,11.6-7.7c3.7,0,7.1,2,9.9,5.3
			c-4.5-7-6.9-9.8-6.6-20.9c0.2-9.3,2.1-45.4,3.3-67.1c-4.3,1.4-8.5,3-12.5,4.8C-149,320.2-147.3,357.9-147.6,364.9z"/>
		<path class="st3" d="M-132.5,420.8c-0.2,0-0.3-0.4-0.4-1.1c-1.9,4.1-4.6,7.2-7.7,8.9c3.5-3.2,6.2-8.6,7.4-15
			c-0.2-6.5-0.3-15.1-1.5-15.7c-1.9-1-2.7,22.6-4.5,22.3c-1.8-0.3-1-22.6-4.3-23c-3.2-0.3-1.1,23.1-2.9,23c-1.8-0.1-2.8-23.4-5.9-22
			c-3.1,1.4-0.8,24.3-2.4,22.4c-1.6-1.9-5.9-26-5.4-28c-1,3.8-1.6,8-1.6,12.5c0,16.7,7.8,30.2,17.4,30.2s17.4-13.5,17.4-30.2
			c0-5.4-0.8-10.4-2.2-14.8C-125.6,402.5-131.4,420.9-132.5,420.8z"/>
		<path class="st3" d="M-159.9,392.5c1.2-4,2.7-7.2,4.2-9.9C-157.5,385.3-158.9,388.7-159.9,392.5z"/>
		<path class="st3" d="M-130.4,386.6c-1.1-2.5-2.4-4.6-3.9-6.4c1.1,1.6,2.3,3.5,3.6,5.8C-130.6,386.2-130.5,386.4-130.4,386.6z"/>
		<path class="st3" d="M-144.1,374.9c-4.5,0-8.5,2.9-11.6,7.7c-1.6,2.7-3,5.8-4.2,9.9c0,0,0,0.1,0,0.1c-0.5,2.1,3.8,26.1,5.4,28
			c1.6,2-0.7-21,2.4-22.4c3-1.4,4.1,21.9,5.9,22s-0.3-23.3,2.9-23c3.2,0.3,2.5,22.7,4.3,23c1.8,0.3,2.5-23.3,4.5-22.3
			c1.2,0.6,1.3,9.2,1.5,15.7c0.4-2.3,0.6-4.7,0.6-7.1c0-12.8-5.8-23.3-13.4-25.1c0.1,0,0.1,0,0.2,0c8.7,0,15.8,10.9,15.8,24.3
			c0,5.2-1.1,10.1-2.9,14.1c0.1,0.7,0.2,1.1,0.4,1.1c1.1,0.1,6.8-18.4,3.5-30.5c-0.4-1.3-0.9-2.5-1.4-3.7c-0.1-0.2-0.2-0.4-0.3-0.6
			c-1.3-2.2-2.5-4.1-3.6-5.8C-137.1,376.9-140.5,374.9-144.1,374.9z"/>
		<path class="st2" d="M-140.6,428.6c3.1-1.7,5.8-4.8,7.7-8.9c-0.2-1.3-0.3-3.5-0.4-6.1C-134.4,420-137.1,425.4-140.6,428.6z"/>
		<path class="st2" d="M-129.9,405.6c0-13.4-7.1-24.3-15.8-24.3c-0.1,0-0.1,0-0.2,0c7.6,1.9,13.4,12.4,13.4,25.1
			c0,2.5-0.2,4.9-0.6,7.1c0.1,2.6,0.2,4.8,0.4,6.1C-131,415.8-129.9,410.9-129.9,405.6z"/>
	</g>
	<text transform="matrix(1 0 0 1 -16.3442 457.7334)" class="st4 st5 st6 st7">ónde Comer?</text>
	<g class="st1">
		<path class="st2" d="M-112.3,738.7h3.7C-109.8,738.7-111,738.7-112.3,738.7C-112.3,738.7-112.3,738.7-112.3,738.7z"/>
		<path class="st2" d="M-174.2,715.6v23.1h49.6c0-0.4,0.1-0.9,0.1-1.3C-143.1,734.5-162.2,726.7-174.2,715.6z"/>
		<path class="st2" d="M-154.5,565.7h-19.6v23.1c5.5-5.1,12.4-9.4,20.1-13C-154.2,571.9-154.4,568.5-154.5,565.7z"/>
		<path class="st2" d="M-108.6,565.7h-32.7c-0.1,1.7-0.2,3.5-0.3,5.3C-130.7,567.5-119.1,565.7-108.6,565.7z"/>
		<path class="st2" d="M-108.6,565.7c-10.6,0-22.1,1.9-33,5.3c-1.2,21.8-3.1,57.8-3.3,67.1c-0.3,11,2.1,13.9,6.6,20.8
			c1.5,1.8,2.8,3.9,3.9,6.4c0.6,1.1,1.1,2.4,1.4,3.7c1.4,4.4,2.2,9.4,2.2,14.8c0,16.7-7.8,30.2-17.4,30.2s-17.4-13.5-17.4-30.2
			c0-4.5,0.6-8.7,1.6-12.5c0,0,0,0,0,0c0,0,0,0,0-0.1c1-3.8,2.4-7.1,4.2-9.9c3.8-6.6,7.9-10.4,8.1-17.7c0.3-7-1.4-44.7-2.5-67.8
			c-7.7,3.5-14.7,7.9-20.1,13v126.8c12,11.1,31.1,18.9,49.7,21.8c1.2-21.9,2.8-53.1,3-61.7c0.3-13.6-4.5-15.9-11.3-27.2
			c-6.8-11.3,1.9-52.5,3.1-52.3c1.2,0.1,0.1,40,2,41c1.9,1,2.9-40.7,4.7-40.5c1.8,0.3,0.8,40.8,4.1,41.1s1.3-41.2,3.1-41.1
			c1.8,0.1,2.6,41.5,5.6,40.1c3.1-1.4,1-42.5,2.6-40.5c1.6,1.9,5.8,40.8,5.2,47c-0.9,8.3-12,16.6-12.4,26.9
			c-0.3,7,1.4,45.4,2.5,68.4c1.2,0,2.4,0.1,3.7,0.1c47.8,0,86.5-38.8,86.5-86.5C-22.1,604.4-60.8,565.7-108.6,565.7z M-107.2,718.8
			c-1.2,0-2.4,0-3.7-0.1c35.8-1.9,64.2-31.5,64.2-67.8s-28.4-65.9-64.2-67.8c1.2-0.1,2.4-0.1,3.7-0.1c37.5,0,67.9,30.4,67.9,67.9
			S-69.7,718.8-107.2,718.8z"/>
		<path class="st3" d="M-107.2,583c-1.2,0-2.4,0-3.7,0.1c35.8,1.9,64.2,31.5,64.2,67.8s-28.4,65.9-64.2,67.8
			c1.2,0.1,2.4,0.1,3.7,0.1c37.5,0,67.9-30.4,67.9-67.9S-69.7,583-107.2,583z"/>
		<path class="st3" d="M-124.5,737.4c0,0.4-0.1,0.9-0.1,1.3h12.3c0,0,0,0,0-0.1C-116.2,738.5-120.4,738.1-124.5,737.4z"/>
		<path class="st3" d="M-114.8,670.2c0.4-10.3,11.5-18.6,12.4-26.9c0.6-6.2-3.6-45-5.2-47s0.5,39.1-2.6,40.5c-3,1.4-3.9-40-5.6-40.1
			s0.1,41.4-3.1,41.1c-3.2-0.3-2.3-40.8-4.1-41.1c-1.8-0.3-2.8,41.4-4.7,40.5s-0.8-40.9-2-41c-1.2-0.1-10,41-3.1,52.3
			c6.8,11.3,11.7,13.6,11.3,27.2c-0.2,8.6-1.8,39.8-3,61.7c4.1,0.7,8.2,1.1,12.2,1.2C-113.3,715.6-115,677.2-114.8,670.2z"/>
		<path class="st3" d="M-141.6,571c0.1-1.9,0.2-3.7,0.3-5.3h-13.2c0.1,2.8,0.3,6.3,0.5,10.1C-150.1,574-145.9,572.4-141.6,571z"/>
		<path class="st3" d="M-134.4,665.4c0.5,1.2,1,2.4,1.4,3.7C-133.3,667.8-133.8,666.5-134.4,665.4z"/>
		<path class="st3" d="M-164,671.3C-164,671.3-164,671.3-164,671.3C-164,671.3-164,671.3-164,671.3C-164,671.3-164,671.3-164,671.3z
			"/>
		<path class="st3" d="M-151.6,643.6c-0.3,7.3-4.4,11.1-8.2,17.7c3.1-4.8,7.1-7.7,11.6-7.7c3.7,0,7.1,2,9.9,5.3
			c-4.5-7-6.9-9.8-6.6-20.8c0.2-9.3,2.1-45.4,3.3-67.1c-4.3,1.4-8.5,3-12.5,4.8C-153,598.9-151.3,636.7-151.6,643.6z"/>
		<path class="st3" d="M-136.5,699.6c-0.2,0-0.3-0.4-0.4-1.1c-1.9,4.1-4.6,7.2-7.7,8.9c3.5-3.2,6.2-8.6,7.4-15
			c-0.2-6.5-0.3-15.1-1.5-15.7c-1.9-1-2.7,22.6-4.5,22.3c-1.8-0.3-1-22.7-4.3-23c-3.2-0.3-1.1,23.1-2.9,23s-2.8-23.4-5.9-22
			c-3.1,1.4-0.8,24.3-2.4,22.4c-1.6-1.9-5.9-26-5.4-28c-1,3.8-1.6,8-1.6,12.5c0,16.7,7.8,30.2,17.4,30.2c9.6,0,17.4-13.5,17.4-30.2
			c0-5.4-0.8-10.4-2.2-14.8C-129.6,681.2-135.4,699.7-136.5,699.6z"/>
		<path class="st3" d="M-163.9,671.2c1.2-4,2.7-7.2,4.2-9.9C-161.5,664.1-162.9,667.5-163.9,671.2z"/>
		<path class="st3" d="M-134.4,665.4c-1.1-2.5-2.4-4.6-3.9-6.4c1.1,1.6,2.3,3.5,3.6,5.8C-134.6,665-134.5,665.2-134.4,665.4z"/>
		<path class="st3" d="M-148.1,653.7c-4.5,0-8.5,2.9-11.6,7.7c-1.6,2.7-3,5.8-4.2,9.9c0,0,0,0.1,0,0.1c-0.5,2.1,3.8,26.1,5.4,28
			c1.6,2-0.7-21,2.4-22.4c3-1.4,4.1,21.9,5.9,22s-0.3-23.3,2.9-23c3.2,0.3,2.5,22.7,4.3,23c1.8,0.3,2.5-23.3,4.5-22.3
			c1.2,0.6,1.3,9.2,1.5,15.7c0.4-2.3,0.6-4.7,0.6-7.1c0-12.8-5.8-23.3-13.4-25.2c0.1,0,0.1,0,0.2,0c8.7,0,15.8,10.9,15.8,24.3
			c0,5.2-1.1,10.1-2.9,14.1c0.1,0.7,0.2,1.1,0.4,1.1c1.1,0.1,6.8-18.3,3.5-30.5c-0.4-1.3-0.9-2.5-1.4-3.7c-0.1-0.2-0.2-0.4-0.3-0.7
			c-1.3-2.2-2.5-4.1-3.6-5.8C-141.1,655.6-144.5,653.7-148.1,653.7z"/>
		<path class="st2" d="M-144.6,707.4c3.1-1.7,5.8-4.8,7.7-8.9c-0.2-1.3-0.3-3.5-0.4-6.1C-138.4,698.8-141.1,704.2-144.6,707.4z"/>
		<path class="st2" d="M-133.9,684.4c0-13.4-7.1-24.3-15.8-24.3c-0.1,0-0.1,0-0.2,0c7.6,1.8,13.4,12.4,13.4,25.2
			c0,2.5-0.2,4.9-0.6,7.1c0.1,2.6,0.2,4.8,0.4,6.1C-135,694.5-133.9,689.7-133.9,684.4z"/>
	</g>
	<text transform="matrix(1 0 0 1 61.6558 736.4922)" class="st4 st5 st6 st7">dónde comer?</text>
	<text transform="matrix(1 0 0 1 -0.3442 695.4922)" class="st4 st5 st6">¿</text>
</g>
<g id="Layer_2">
	<g>
		<path class="st2" d="M364.2,720h14.4c-4.8,0-9.6-0.1-14.4-0.3C364.1,719.8,364.2,719.9,364.2,720z"/>
		<path class="st2" d="M378.6,37h-129c-0.3,6.5-0.7,13.6-1.1,21.1c-4.6,85.9-12.1,228.2-13,265c-1,43.5,8.2,54.8,26.1,82.3
			c5.8,7,11,15.5,15.4,25.2c2.3,4.5,4.1,9.3,5.5,14.5c5.6,17.3,8.8,37.2,8.8,58.4c0,65.8-30.8,119.1-68.7,119.1
			c-38,0-68.7-53.3-68.7-119.1c0-17.6,2.2-34.4,6.2-49.4c0,0,0-0.1,0-0.1c0-0.1,0.1-0.2,0.1-0.3c4-14.9,9.7-28.2,16.6-39
			c15-26.1,31.1-41.1,32.2-69.9c1-27.5-5.5-176.4-9.7-267.7c-0.7-15.2-1.4-28.8-1.9-40h-77.5v91.2v500.5V720h195.9
			c0.1-1.7,0.2-3.4,0.3-5.1c4.6-86.4,11-209.7,11.8-243.6c1.3-53.7-17.9-62.7-44.8-107.4c-26.8-44.7,7.5-207.1,12.4-206.6
			c4.9,0.6,0.3,158,8,161.9c7.7,3.8,11.5-160.8,18.5-159.7c7,1.1,3.2,160.9,16,162.2s5.2-162.8,12.2-162.2
			c7.1,0.5,10.3,163.8,22.3,158.4c12.1-5.5,3.8-167.5,10.2-159.8c6.4,7.7,23,161.1,20.4,185.4c-3.5,32.9-47.4,65.6-49,106.2
			c-1,27.7,5.6,179,9.9,270.1c4.9,0.2,9.7,0.3,14.4,0.3c188.6,0,341.5-152.9,341.5-341.5C720.1,189.9,567.2,37,378.6,37z
			 M384.2,641.4c-4.8,0-9.7-0.1-14.5-0.4c141.2-7.6,253.4-124.5,253.4-267.6c0-143.1-112.2-260-253.4-267.6
			c4.8-0.2,9.6-0.4,14.5-0.4c148,0,268,120,268,268C652.2,521.4,532.2,641.4,384.2,641.4z"/>
		<path class="st3" d="M384.2,105.3c-4.8,0-9.7,0.2-14.5,0.4c141.2,7.6,253.4,124.5,253.4,267.6c0,143.1-112.2,260-253.4,267.6
			c4.8,0.3,9.6,0.4,14.5,0.4c148,0,268-120,268-268C652.2,225.3,532.2,105.3,384.2,105.3z"/>
		<path class="st3" d="M316,714.9c-0.1,1.7-0.2,3.4-0.3,5.1h48.5c0-0.1,0-0.2,0-0.3C348.4,719.1,332.2,717.4,316,714.9z"/>
		<path class="st3" d="M354.3,449.6c1.5-40.6,45.5-73.3,49-106.2c2.6-24.3-14-177.7-20.4-185.4c-6.4-7.7,1.9,154.3-10.2,159.8
			c-12,5.4-15.2-157.9-22.3-158.4c-7.1-0.6,0.5,163.5-12.2,162.2c-12.8-1.3-8.9-161.1-16-162.2c-7.1-1.1-10.9,163.5-18.5,159.7
			s-3.2-161.3-8-161.9c-4.9-0.5-39.3,161.9-12.4,206.6c26.9,44.7,46,53.7,44.8,107.4c-0.8,33.9-7.2,157.2-11.8,243.6
			c16.3,2.6,32.4,4.2,48.2,4.8C359.9,628.6,353.2,477.3,354.3,449.6z"/>
		<path class="st3" d="M276.9,430.6c2,4.6,3.9,9.4,5.5,14.5C281.1,439.9,279.2,435,276.9,430.6z"/>
		<path class="st3" d="M160.1,453.9c0,0,0,0.1,0,0.1c0-0.1,0.1-0.3,0.1-0.4C160.2,453.7,160.1,453.8,160.1,453.9z"/>
		<path class="st3" d="M235.5,323c0.9-36.8,8.4-179,13-265c0.4-7.5,0.8-14.6,1.1-21.1h-52.2c0.5,11.2,1.2,24.8,1.9,40
			c4.2,91.3,10.8,240.2,9.7,267.7c-1.1,28.8-17.2,43.8-32.2,69.9c12.1-18.8,28.2-30.3,45.8-30.3c14.5,0,27.9,7.8,38.9,21
			C243.7,377.9,234.4,366.5,235.5,323z"/>
		<path class="st3" d="M268.6,565.5c-0.6-0.1-1.1-1.6-1.5-4.3c-7.5,16.1-18.1,28.6-30.5,35.2c13.9-12.7,24.5-33.9,29.1-59.3
			c-0.8-25.6-1.2-59.5-5.9-61.9c-7.7-3.8-10.7,89.2-17.7,88.1c-7-1.1-4-89.4-16.8-90.6c-12.8-1.3-4.3,91.2-11.4,90.6
			c-7-0.5-11.1-92.2-23.1-86.8c-12.1,5.5-3,95.9-9.4,88.2c-6.4-7.6-23.2-102.5-21.2-110.7c-4,15.1-6.2,31.8-6.2,49.4
			c0,65.8,30.8,119.1,68.7,119.1s68.7-53.3,68.7-119.1c0-21.2-3.2-41.1-8.8-58.4C295.6,493.1,273,566,268.6,565.5z"/>
		<path class="st3" d="M160.2,453.6c4.6-16,10.5-28.4,16.6-39C169.8,425.5,164.2,438.7,160.2,453.6z"/>
		<path class="st3" d="M276.9,430.6c-4.3-9.7-9.5-18.2-15.4-25.2c4.2,6.5,8.9,13.8,14,22.7C276.1,428.8,276.5,429.7,276.9,430.6z"/>
		<path class="st3" d="M222.6,384.3c-17.6,0-33.6,11.5-45.8,30.3c-6.1,10.6-12,23-16.6,39c0,0.1-0.1,0.3-0.1,0.4
			c-2,8.1,14.9,103.1,21.2,110.7c6.4,7.7-2.8-82.7,9.4-88.2c12-5.4,16.1,86.3,23.1,86.8c7.1,0.5-1.4-91.9,11.4-90.6
			c12.8,1.3,9.8,89.6,16.8,90.6c7.1,1.1,10-91.9,17.7-88.1c4.8,2.4,5.2,36.3,5.9,61.9c1.6-8.9,2.5-18.4,2.5-28.2
			c0-50.3-22.9-92-52.8-99.2c0.3,0,0.6,0,0.9,0c34.4,0,62.4,43,62.4,96c0,20.7-4.3,39.9-11.5,55.6c0.4,2.6,0.9,4.2,1.5,4.3
			c4.3,0.5,27-72.4,13.9-120.4c-1.7-5.1-3.5-9.9-5.5-14.5c-0.4-0.9-0.9-1.7-1.3-2.5c-5.2-8.9-9.8-16.2-14-22.7
			C250.5,392.1,237.1,384.3,222.6,384.3z"/>
		<path class="st2" d="M236.6,596.3c12.4-6.6,23.1-19,30.5-35.2c-0.7-5-1.1-13.9-1.4-24.1C261.1,562.4,250.5,583.6,236.6,596.3z"/>
		<path class="st2" d="M278.7,505.6c0-53-27.9-96-62.4-96c-0.3,0-0.6,0-0.9,0c29.9,7.3,52.7,49,52.7,99.2c0,9.8-0.9,19.2-2.5,28.2
			c0.3,10.2,0.7,19.1,1.4,24.1C274.4,545.5,278.7,526.3,278.7,505.6z"/>
	</g>
</g>
<g id="Layer_3" class="st0">
	<g class="st1">
		<path class="st2" d="M-96.2,450.2h4.4C-93.3,450.2-94.7,450.1-96.2,450.2C-96.2,450.1-96.2,450.2-96.2,450.2z"/>
		<path class="st2" d="M-170.2,422.6v27.6h59.3c0-0.5,0.1-1,0.1-1.6C-133,445.1-155.9,435.8-170.2,422.6z"/>
		<path class="st2" d="M-146.7,243.4h-23.5V271c6.5-6.1,14.8-11.3,24-15.5C-146.3,250.9-146.5,246.7-146.7,243.4z"/>
		<path class="st2" d="M-91.8,243.4h-39.1c-0.1,2-0.2,4.1-0.3,6.4C-118.2,245.6-104.4,243.4-91.8,243.4z"/>
		<path class="st2" d="M-91.8,243.4c-12.6,0-26.4,2.3-39.4,6.4c-1.4,26-3.7,69.1-3.9,80.2c-0.3,13.2,2.5,16.6,7.9,24.9
			c1.8,2.1,3.3,4.7,4.7,7.6c0.7,1.4,1.2,2.8,1.7,4.4c1.7,5.2,2.7,11.3,2.7,17.7c0,19.9-9.3,36.1-20.8,36.1s-20.8-16.1-20.8-36.1
			c0-5.3,0.7-10.4,1.9-15c0,0,0,0,0,0c0,0,0-0.1,0-0.1c1.2-4.5,2.9-8.5,5-11.8c4.5-7.9,9.4-12.4,9.7-21.2c0.3-8.3-1.7-53.4-2.9-81.1
			c-9.2,4.2-17.5,9.5-24.1,15.5v151.6c14.3,13.3,37.2,22.6,59.4,26.1c1.4-26.2,3.3-63.5,3.6-73.8c0.4-16.3-5.4-19-13.6-32.5
			c-8.1-13.5,2.3-62.7,3.8-62.6c1.5,0.2,0.1,47.9,2.4,49c2.3,1.2,3.5-48.7,5.6-48.4c2.1,0.3,1,48.7,4.8,49.1
			c3.9,0.4,1.6-49.3,3.7-49.1c2.1,0.2,3.1,49.6,6.8,48c3.7-1.7,1.2-50.7,3.1-48.4s7,48.8,6.2,56.1c-1.1,10-14.4,19.9-14.8,32.2
			c-0.3,8.4,1.7,54.2,3,81.8c1.5,0.1,2.9,0.1,4.4,0.1c57.1,0,103.4-46.3,103.4-103.4C11.6,289.7-34.7,243.4-91.8,243.4z
			 M-90.1,426.4c-1.5,0-2.9,0-4.4-0.1c42.8-2.3,76.7-37.7,76.7-81s-34-78.7-76.7-81c1.4-0.1,2.9-0.1,4.4-0.1
			c44.8,0,81.2,36.3,81.2,81.2C-9,390-45.3,426.4-90.1,426.4z"/>
		<path class="st3" d="M-90.1,264c-1.5,0-2.9,0-4.4,0.1c42.8,2.3,76.7,37.7,76.7,81s-34,78.7-76.7,81c1.4,0.1,2.9,0.1,4.4,0.1
			c44.8,0,81.2-36.3,81.2-81.2C-9,300.4-45.3,264-90.1,264z"/>
		<path class="st3" d="M-110.8,448.6c0,0.5-0.1,1-0.1,1.6h14.7c0,0,0-0.1,0-0.1C-100.9,449.9-105.9,449.4-110.8,448.6z"/>
		<path class="st3" d="M-99.2,368.3c0.5-12.3,13.8-22.2,14.8-32.2c0.8-7.4-4.2-53.8-6.2-56.1c-1.9-2.3,0.6,46.7-3.1,48.4
			c-3.6,1.6-4.6-47.8-6.8-48c-2.1-0.2,0.2,49.5-3.7,49.1c-3.9-0.4-2.7-48.8-4.8-49.1c-2.1-0.3-3.3,49.5-5.6,48.4
			c-2.3-1.2-0.9-48.9-2.4-49s-11.9,49-3.8,62.6c8.1,13.5,13.9,16.3,13.6,32.5c-0.2,10.3-2.2,47.6-3.6,73.8c4.9,0.8,9.8,1.3,14.6,1.5
			C-97.5,422.5-99.5,376.7-99.2,368.3z"/>
		<path class="st3" d="M-131.2,249.7c0.1-2.3,0.2-4.4,0.3-6.4h-15.8c0.2,3.4,0.4,7.5,0.6,12.1C-141.4,253.3-136.4,251.4-131.2,249.7
			z"/>
		<path class="st3" d="M-122.6,362.5c0.6,1.4,1.2,2.9,1.7,4.4C-121.3,365.4-121.9,363.9-122.6,362.5z"/>
		<path class="st3" d="M-158,369.6C-158,369.6-158,369.6-158,369.6C-158,369.6-158,369.6-158,369.6C-158,369.5-158,369.6-158,369.6z
			"/>
		<path class="st3" d="M-143.2,336.5c-0.3,8.7-5.2,13.3-9.7,21.2c3.7-5.7,8.5-9.2,13.9-9.2c4.4,0,8.4,2.4,11.8,6.4
			c-5.4-8.3-8.2-11.8-7.9-24.9c0.3-11.1,2.5-54.2,3.9-80.2c-5.1,1.6-10.1,3.6-14.9,5.7C-144.8,283.1-142.9,328.2-143.2,336.5z"/>
		<path class="st3" d="M-125.1,403.4c-0.2,0-0.3-0.5-0.5-1.3c-2.3,4.9-5.5,8.7-9.2,10.6c4.2-3.9,7.4-10.3,8.8-18
			c-0.2-7.7-0.4-18-1.8-18.7c-2.3-1.2-3.2,27-5.4,26.7c-2.1-0.3-1.2-27.1-5.1-27.5c-3.9-0.4-1.3,27.6-3.4,27.5
			c-2.1-0.2-3.4-27.9-7-26.3c-3.7,1.7-0.9,29-2.8,26.7c-1.9-2.3-7-31.1-6.4-33.5c-1.2,4.6-1.9,9.6-1.9,15c0,19.9,9.3,36.1,20.8,36.1
			s20.8-16.1,20.8-36.1c0-6.4-1-12.5-2.7-17.7C-116.9,381.5-123.8,403.5-125.1,403.4z"/>
		<path class="st3" d="M-157.9,369.5c1.4-4.8,3.2-8.6,5-11.8C-155,361-156.8,365-157.9,369.5z"/>
		<path class="st3" d="M-122.6,362.5c-1.3-2.9-2.9-5.5-4.7-7.6c1.3,2,2.7,4.2,4.2,6.9C-122.9,362-122.7,362.3-122.6,362.5z"/>
		<path class="st3" d="M-139.1,348.5c-5.3,0-10.2,3.5-13.9,9.2c-1.9,3.2-3.6,7-5,11.8c0,0,0,0.1,0,0.1c-0.6,2.5,4.5,31.2,6.4,33.5
			c1.9,2.3-0.8-25,2.8-26.7c3.6-1.6,4.9,26.1,7,26.3s-0.4-27.8,3.4-27.5c3.9,0.4,3,27.1,5.1,27.5c2.1,0.3,3-27.8,5.4-26.7
			c1.4,0.7,1.6,11,1.8,18.7c0.5-2.7,0.8-5.6,0.8-8.5c0-15.2-6.9-27.9-16-30.1c0.1,0,0.2,0,0.3,0c10.4,0,18.9,13,18.9,29.1
			c0,6.3-1.3,12.1-3.5,16.8c0.1,0.8,0.3,1.3,0.5,1.3c1.3,0.1,8.2-21.9,4.2-36.5c-0.5-1.5-1.1-3-1.7-4.4c-0.1-0.3-0.3-0.5-0.4-0.8
			c-1.6-2.7-3-4.9-4.2-6.9C-130.6,350.9-134.7,348.5-139.1,348.5z"/>
		<path class="st2" d="M-134.8,412.8c3.8-2,7-5.8,9.2-10.6c-0.2-1.5-0.3-4.2-0.4-7.3C-127.4,402.5-130.6,408.9-134.8,412.8z"/>
		<path class="st2" d="M-122.1,385.3c0-16-8.5-29.1-18.9-29.1c-0.1,0-0.2,0-0.3,0c9,2.2,16,14.8,16,30.1c0,3-0.3,5.8-0.8,8.5
			c0.1,3.1,0.2,5.8,0.4,7.3C-123.4,397.4-122.1,391.5-122.1,385.3z"/>
	</g>
	<text transform="matrix(1 0 0 1 13.6582 447.5098)" class="st4 st5 st8 st9">ónde Comer?</text>
</g>
</svg>
